<svg width="162" height="44" viewBox="0 0 162 44" fill="none" xmlns="http://www.w3.org/2000/svg">
<path d="M3.10017 35.076V14.5309C3.10017 13.368 2.9322 12.4376 2.59624 11.7399C2.28612 11.0163 1.54959 10.6545 0.386665 10.6545H-0.000976562V9.49155H4.65074C5.55524 9.49155 6.253 9.6466 6.74402 9.95672C7.26087 10.2668 7.62266 10.7837 7.82939 11.5073C8.03615 12.2309 8.13952 13.2388 8.13952 14.5309V20.927H18.6059V9.49155H23.6452V30.0366C23.6452 31.1995 23.8002 32.1428 24.1104 32.8663C24.4464 33.5642 25.1958 33.913 26.3587 33.913H26.7463V35.076H22.0946C21.1902 35.076 20.4796 34.9339 19.9626 34.6495C19.4715 34.3395 19.1228 33.8225 18.9161 33.099C18.7092 32.3495 18.6059 31.3287 18.6059 30.0366V22.6714H8.13952V35.076H3.10017ZM28.0978 35.076L39.06 9.35059H39.2975L50.2597 35.076H45.6101L37.9739 15.6292L40.8587 13.6947L32.0685 35.076H28.0978ZM35.0212 25.9125H43.4041L44.7956 29.3404H33.7995L35.0212 25.9125ZM69.9161 31.173H78.0275V35.076H64.6217L69.9161 31.173ZM51.5554 22.7223C51.5554 21.0254 51.8834 19.4189 52.5397 17.903C53.1957 16.3644 54.1007 15.0183 55.2547 13.8644C56.4086 12.6879 57.7434 11.7602 59.2594 11.0815C60.7979 10.4027 62.427 10.0633 64.1467 10.0633C65.8888 10.0633 67.5178 10.4027 69.0338 11.0815C70.5722 11.7602 71.9298 12.6879 73.1063 13.8644C74.2828 15.0183 75.1992 16.3644 75.8553 17.903C76.5114 19.4189 76.8397 21.0254 76.8397 22.7223C76.8397 24.4872 76.5114 26.1275 75.8553 27.6435C75.1992 29.1594 74.2828 30.5056 73.1063 31.6821C71.9298 32.8361 70.5722 33.741 69.0338 34.3971C67.5178 35.0306 65.8888 35.3474 64.1467 35.3474C62.427 35.3474 60.7979 35.0306 59.2594 34.3971C57.7434 33.741 56.4086 32.8473 55.2547 31.716C54.1007 30.5621 53.1957 29.216 52.5397 27.6774C51.8834 26.1388 51.5554 24.4872 51.5554 22.7223ZM55.696 22.7562C55.696 24.34 56.0692 25.7994 56.8159 27.1344C57.5851 28.4466 58.6146 29.4987 59.9042 30.2907C61.2166 31.0599 62.6758 31.4446 64.2824 31.4446C65.8662 31.4446 67.2915 31.0599 68.5586 30.2907C69.8256 29.4987 70.8325 28.4466 71.5792 27.1344C72.3258 25.7994 72.6992 24.3287 72.6992 22.7223C72.6992 21.5458 72.4728 20.4371 72.0203 19.3963C71.5903 18.3329 70.9908 17.4054 70.2216 16.6134C69.4522 15.8214 68.5473 15.1993 67.5065 14.7468C66.4884 14.2942 65.3797 14.068 64.1806 14.068C62.5966 14.068 61.16 14.4639 59.8704 15.2559C58.5807 16.0251 57.5625 17.0772 56.8159 18.4121C56.0692 19.7243 55.696 21.1726 55.696 22.7562ZM100.109 31.173H108.221V35.076H94.815L100.109 31.173ZM81.7487 22.7223C81.7487 21.0254 82.0769 19.4189 82.7328 17.903C83.3891 16.3644 84.2941 15.0183 85.448 13.8644C86.6019 12.6879 87.9369 11.7602 89.4527 11.0815C90.9913 10.4027 92.6203 10.0633 94.3398 10.0633C96.0821 10.0633 97.7111 10.4027 99.2269 11.0815C100.766 11.7602 102.123 12.6879 103.3 13.8644C104.476 15.0183 105.393 16.3644 106.049 17.903C106.705 19.4189 107.033 21.0254 107.033 22.7223C107.033 24.4872 106.705 26.1275 106.049 27.6435C105.393 29.1594 104.476 30.5056 103.3 31.6821C102.123 32.8361 100.766 33.741 99.2269 34.3971C97.7111 35.0306 96.0821 35.3474 94.3398 35.3474C92.6203 35.3474 90.9913 35.0306 89.4527 34.3971C87.9369 33.741 86.6019 32.8473 85.448 31.716C84.2941 30.5621 83.3891 29.216 82.7328 27.6774C82.0769 26.1388 81.7487 24.4872 81.7487 22.7223ZM85.8891 22.7562C85.8891 24.34 86.2625 25.7994 87.0092 27.1344C87.7786 28.4466 88.8079 29.4987 90.0975 30.2907C91.4099 31.0599 92.8693 31.4446 94.4755 31.4446C96.0595 31.4446 97.4848 31.0599 98.7519 30.2907C100.019 29.4987 101.026 28.4466 101.772 27.1344C102.519 25.7994 102.892 24.3287 102.892 22.7223C102.892 21.5458 102.666 20.4371 102.214 19.3963C101.784 18.3329 101.184 17.4054 100.415 16.6134C99.6457 15.8214 98.7406 15.1993 97.6998 14.7468C96.6815 14.2942 95.573 14.068 94.3739 14.068C92.7901 14.068 91.3533 14.4639 90.0637 15.2559C88.7739 16.0251 87.7558 17.0772 87.0092 18.4121C86.2625 19.7243 85.8891 21.1726 85.8891 22.7562Z" fill="white"/>
<path fill-rule="evenodd" clip-rule="evenodd" d="M125.71 16.0288L119.6 22.3372L125.908 28.4479L126.048 37.2295L134.829 37.0896L141.137 43.2002L147.248 36.8921L156.03 36.7523L155.89 27.9707L162 21.6626L155.692 15.5518L155.552 6.77024L146.771 6.90999L140.463 0.799316L134.352 7.10761L125.571 7.24736L125.71 16.0288Z" fill="white"/>
</svg>
