<svg width="122" height="184" viewBox="0 0 122 184" fill="none" xmlns="http://www.w3.org/2000/svg">
<path d="M57.1586 0.0244279C57.9343 0.0163924 58.7101 0.00835688 59.5093 7.78715e-05C73.5455 -0.0232353 86.6683 5.18883 97.0887 14.5832C97.5373 14.9782 97.9859 15.3732 98.4481 15.7802C107.262 24.0184 113.704 36.2185 119.413 46.7354C115.143 49.7858 110.803 52.6574 106.322 55.3887C105.112 56.1315 103.902 56.8748 102.693 57.6186C102.088 57.9906 101.483 58.3625 100.859 58.7458C98.0577 60.4774 95.2747 62.2382 92.4925 64.0009C90.5231 65.2456 88.5532 66.4895 86.583 67.7328C86.1385 68.0135 85.694 68.2943 85.2361 68.5835C84.0318 69.3421 82.8251 70.0966 81.6173 70.8496C80.9529 71.2658 80.2885 71.6819 79.6039 72.1107C78.047 72.9822 78.047 72.9822 76.7338 72.9822C75.9344 71.9523 75.9344 71.9523 75.0435 70.5087C74.7156 69.9827 74.3877 69.4566 74.0498 68.9146C73.7032 68.3487 73.3565 67.7828 72.9993 67.1997C72.6446 66.6308 72.2899 66.0619 71.9245 65.4758C70.4123 63.0494 68.9138 60.6151 67.4284 58.1722C67.0458 57.5514 66.6632 56.9305 66.2691 56.2909C65.793 55.5004 65.793 55.5004 65.3072 54.694C63.6624 52.5037 62.0402 50.9285 59.3336 50.2777C56.2565 50.2489 54.8532 50.3262 52.3571 52.2719C50.6381 54.8653 50.6781 57.5086 51.126 60.515C51.928 62.5158 53.0423 64.2273 54.2449 66.0104C54.5696 66.5154 54.8942 67.0204 55.2287 67.5407C55.9143 68.606 56.6053 69.6678 57.3013 70.7263C58.6529 72.7906 59.9635 74.8793 61.2746 76.9695C62.2568 78.5337 63.245 80.0941 64.2351 81.6533C66.5443 85.2902 68.8452 88.9323 71.1452 92.575C72.8236 95.2322 74.5052 97.8872 76.1926 100.539C77.8468 103.14 79.4924 105.746 81.1284 108.358C81.6687 109.22 82.2107 110.081 82.7552 110.941C85.3291 115.021 87.4064 118.657 87.8962 123.507C87.9495 123.961 88.0028 124.416 88.0578 124.884C88.4494 131.418 85.9348 137.911 82.0123 143.049C77.4741 147.983 71.4499 151.182 64.784 151.971C57.3018 152.245 51.5214 149.944 45.6064 145.443C42.691 142.714 40.535 139.482 38.6504 135.974C38.6504 135.541 38.6504 135.108 38.6504 134.662C34.2274 137.218 29.8325 139.8 25.5182 142.536C31.3789 153.496 38.9211 161.1 50.8618 165.071C61.5222 167.981 73.0336 166.526 82.7202 161.383C92.1751 155.737 98.6964 147.235 101.603 136.59C104.655 121.377 99.9186 109.629 91.7127 96.9733C91.3001 96.3309 90.8875 95.6885 90.4623 95.0266C88.9654 92.6987 87.4624 90.3765 85.9264 88.0741C86.0113 86.7519 86.0113 86.7519 86.583 85.4494C87.7112 84.4992 87.7112 84.4992 89.1632 83.6372C89.6855 83.323 90.2077 83.0088 90.7458 82.685C91.2951 82.3657 91.8444 82.0464 92.4104 81.7174C92.9546 81.3905 93.4989 81.0636 94.0596 80.7268C98.0655 78.3436 98.0655 78.3436 100.372 77.5754C124.351 115.22 124.351 115.22 119.367 139.176C116.808 149.504 112.136 158.274 104.968 166.158C104.607 166.573 104.245 166.987 103.873 167.414C95.276 176.705 81.6694 183.371 69.0701 183.956C50.8911 184.436 36.0381 181.093 22.4249 168.288C21.929 167.802 21.433 167.315 20.9219 166.814C20.2795 166.196 20.2795 166.196 19.6241 165.566C15.2211 160.994 12.0909 155.448 8.78938 150.067C7.50472 147.978 6.20226 145.9 4.89878 143.823C3.67037 141.865 2.44705 139.904 1.22362 137.943C4.19243 134.549 7.83135 132.509 11.6883 130.233C13.0594 129.412 14.4299 128.59 15.7999 127.767C16.4595 127.372 17.1192 126.977 17.7989 126.569C21.0998 124.574 24.3272 122.47 27.5631 120.372C30.186 118.674 32.8156 116.986 35.4494 115.305C36.256 114.784 36.256 114.784 37.0788 114.253C37.5856 113.93 38.0924 113.607 38.6145 113.275C39.0649 112.986 39.5153 112.697 39.9793 112.4C41.2879 111.69 42.449 111.331 43.9033 111.04C44.1179 111.38 44.3325 111.72 44.5536 112.07C44.8545 112.546 45.1553 113.023 45.4653 113.513C45.7975 114.039 46.1296 114.566 46.4719 115.108C47.1966 116.254 47.9222 117.401 48.6485 118.546C51.7552 123.449 51.7552 123.449 53.2138 125.85C53.7851 126.781 53.7851 126.781 54.368 127.731C54.6854 128.258 55.0028 128.785 55.3298 129.328C57.0496 131.618 58.8596 133.094 61.5907 133.965C64.629 134.027 66.5105 132.93 68.7724 130.971C69.9362 128.516 69.8655 126.177 69.5111 123.507C68.7413 121.545 67.6502 119.878 66.4743 118.135C66.153 117.635 65.8317 117.135 65.5007 116.62C64.8053 115.539 64.1041 114.463 63.398 113.389C61.8705 111.059 60.3835 108.703 58.8929 106.349C57.7241 104.505 56.5496 102.665 55.3734 100.826C52.9881 97.0943 50.6098 93.3585 48.2548 89.6079C46.4038 86.6605 44.5284 83.7314 42.6285 80.8152C41.7401 79.4346 40.8518 78.0539 39.9636 76.6731C39.3378 75.7261 39.3378 75.7262 38.6993 74.76C34.3948 68.0219 31.6844 60.9063 33.0282 52.8973C34.6832 45.5789 38.3859 40.1663 44.6317 36.0137C51.4907 32.0771 57.6012 31.2619 65.2431 33.284C72.3923 35.7107 77.728 40.0794 81.3301 46.7354C81.5468 47.6016 81.7634 48.4677 81.9867 49.3601C88.4871 45.4625 88.4871 45.4625 95.1189 41.4861C89.4184 31.232 83.0542 24.4464 72.1375 19.8325C71.6102 19.6084 71.0829 19.3842 70.5396 19.1533C61.1377 15.9212 49.4889 16.9417 40.6202 21.1449C38.0556 22.5003 35.7192 24.0016 33.3975 25.738C32.8863 26.1136 32.3751 26.4891 31.8483 26.8761C24.5059 32.7967 19.5035 42.0142 18.2955 51.3286C17.4051 64.8289 20.9133 74.6609 28.1857 85.9415C28.5247 86.4735 28.8637 87.0056 29.2129 87.5537C29.5451 88.0739 29.8773 88.5941 30.2196 89.1301C30.5363 89.6262 30.853 90.1222 31.1792 90.6334C31.7444 91.4937 32.3273 92.3429 32.9355 93.1735C34.7356 95.6358 34.7356 95.6358 34.6065 97.2553C33.8854 98.9753 33.0826 99.4444 31.4969 100.408C30.9777 100.725 30.4584 101.042 29.9234 101.369C29.377 101.691 28.8307 102.014 28.2678 102.346C27.729 102.678 27.1903 103.011 26.6352 103.353C22.5819 105.791 22.5819 105.791 19.6087 105.791C18.6706 104.721 18.6706 104.721 17.8133 103.22C17.493 102.671 17.1727 102.123 16.8426 101.557C16.5095 100.965 16.1764 100.372 15.8332 99.7621C15.1318 98.5502 14.4299 97.3387 13.7274 96.1275C13.2162 95.2365 13.2162 95.2365 12.6947 94.3275C11.4539 92.1935 10.1404 90.1159 8.81567 88.033C0.528177 74.5964 -1.97178 58.5669 1.55192 43.0855C4.34912 33.8004 8.66501 25.8235 15.0124 18.5202C15.6485 17.7856 15.6485 17.7856 16.2974 17.0361C26.9339 5.646 41.8471 0.0326411 57.1586 0.0244279Z" fill="url(#paint0_linear_325_10726)"/>
<defs>
<linearGradient id="paint0_linear_325_10726" x1="152.709" y1="-43.1644" x2="-58.3105" y2="94.8366" gradientUnits="userSpaceOnUse">
<stop stop-color="#5EDE99"/>
<stop offset="0.927471" stop-color="#0D744E"/>
</linearGradient>
</defs>
</svg>
