<svg width="41" height="40" viewBox="0 0 41 40" fill="none" xmlns="http://www.w3.org/2000/svg">
<g clip-path="url(#clip0_354_4948)">
<path d="M14.0278 39.5C20.8087 39.5 26.3056 34.003 26.3056 27.2221C26.3056 20.4413 20.8087 14.9443 14.0278 14.9443C7.24696 14.9443 1.75 20.4413 1.75 27.2221C1.75 34.003 7.24696 39.5 14.0278 39.5Z" fill="#09573A"/>
<path d="M14.0278 38.0556C20.8087 38.0556 26.3056 32.5587 26.3056 25.7778C26.3056 18.997 20.8087 13.5 14.0278 13.5C7.24696 13.5 1.75 18.997 1.75 25.7778C1.75 32.5587 7.24696 38.0556 14.0278 38.0556Z" fill="#89D6BA"/>
<path d="M14.0272 36.6109C19.6114 36.6109 24.1383 32.084 24.1383 26.4998C24.1383 20.9156 19.6114 16.3887 14.0272 16.3887C8.44293 16.3887 3.91602 20.9156 3.91602 26.4998C3.91602 32.084 8.44293 36.6109 14.0272 36.6109Z" fill="#89D6BA"/>
<path d="M14.0272 35.8893C19.6114 35.8893 24.1383 31.3624 24.1383 25.7781C24.1383 20.1939 19.6114 15.667 14.0272 15.667C8.44293 15.667 3.91602 20.1939 3.91602 25.7781C3.91602 31.3624 8.44293 35.8893 14.0272 35.8893Z" fill="#0D744E"/>
<path d="M13.7938 18.2744C13.8576 18.2738 13.9214 18.2731 13.9872 18.2725C15.142 18.2706 16.2218 18.6948 17.0792 19.4593C17.1161 19.4915 17.153 19.5236 17.191 19.5567C17.9162 20.2272 18.4463 21.2201 18.916 22.076C18.5646 22.3242 18.2076 22.558 17.8389 22.7802C17.7393 22.8407 17.6398 22.9012 17.5403 22.9617C17.4905 22.992 17.4407 23.0223 17.3894 23.0534C17.1589 23.1944 16.9299 23.3377 16.701 23.4811C16.5389 23.5824 16.3769 23.6837 16.2148 23.7849C16.1782 23.8077 16.1416 23.8305 16.1039 23.8541C16.0049 23.9158 15.9056 23.9772 15.8062 24.0385C15.7515 24.0724 15.6969 24.1062 15.6405 24.1411C15.5124 24.2121 15.5124 24.2121 15.4044 24.2121C15.3386 24.1283 15.3386 24.1283 15.2653 24.0108C15.2383 23.968 15.2113 23.9251 15.1835 23.881C15.155 23.835 15.1265 23.7889 15.0971 23.7415C15.0679 23.6952 15.0387 23.6489 15.0087 23.6012C14.8843 23.4037 14.761 23.2056 14.6387 23.0068C14.6073 22.9562 14.5758 22.9057 14.5434 22.8537C14.5042 22.7893 14.5042 22.7893 14.4642 22.7237C14.3289 22.5454 14.1954 22.4172 13.9727 22.3643C13.7195 22.3619 13.6041 22.3682 13.3987 22.5266C13.2573 22.7376 13.2605 22.9528 13.2974 23.1974C13.3634 23.3603 13.4551 23.4996 13.554 23.6447C13.5807 23.6858 13.6074 23.7269 13.635 23.7692C13.6914 23.8559 13.7482 23.9423 13.8055 24.0285C13.9167 24.1965 14.0245 24.3665 14.1324 24.5366C14.2132 24.6639 14.2945 24.7909 14.376 24.9178C14.566 25.2138 14.7553 25.5102 14.9446 25.8066C15.0827 26.0229 15.221 26.239 15.3598 26.4547C15.496 26.6664 15.6314 26.8785 15.766 27.0911C15.8104 27.1613 15.855 27.2314 15.8998 27.3013C16.1116 27.6334 16.2825 27.9293 16.3228 28.324C16.3272 28.361 16.3316 28.3979 16.3361 28.436C16.3683 28.9678 16.1614 29.4963 15.8387 29.9144C15.4653 30.316 14.9696 30.5763 14.4212 30.6405C13.8055 30.6629 13.3299 30.4756 12.8433 30.1092C12.6034 29.8871 12.426 29.6241 12.2709 29.3386C12.2709 29.3034 12.2709 29.2682 12.2709 29.2318C11.907 29.4399 11.5454 29.65 11.1904 29.8727C11.6726 30.7647 12.2932 31.3835 13.2757 31.7067C14.1528 31.9435 15.0999 31.8251 15.8969 31.4065C16.6749 30.947 17.2114 30.2551 17.4506 29.3887C17.7017 28.1507 17.312 27.1946 16.6368 26.1646C16.6029 26.1123 16.5689 26.06 16.5339 26.0061C16.4108 25.8167 16.2871 25.6277 16.1607 25.4403C16.1677 25.3327 16.1677 25.3327 16.2148 25.2267C16.3076 25.1494 16.3076 25.1494 16.4271 25.0792C16.47 25.0536 16.513 25.0281 16.5573 25.0017C16.6025 24.9757 16.6477 24.9498 16.6942 24.923C16.739 24.8964 16.7838 24.8698 16.8299 24.8424C17.1595 24.6484 17.1595 24.6484 17.3493 24.5859C19.3223 27.6496 19.3223 27.6496 18.9122 29.5992C18.7016 30.4397 18.3173 31.1535 17.7275 31.7951C17.6977 31.8289 17.668 31.8626 17.6373 31.8973C16.93 32.6535 15.8105 33.196 14.7738 33.2436C13.2781 33.2826 12.056 33.0106 10.9359 31.9685C10.8951 31.9289 10.8543 31.8893 10.8122 31.8485C10.7594 31.7982 10.7594 31.7982 10.7055 31.7469C10.3432 31.3749 10.0856 30.9235 9.814 30.4856C9.7083 30.3156 9.60113 30.1465 9.49389 29.9774C9.39281 29.8181 9.29216 29.6585 9.1915 29.4989C9.43577 29.2226 9.73517 29.0566 10.0525 28.8714C10.1653 28.8046 10.2781 28.7377 10.3908 28.6707C10.4451 28.6385 10.4994 28.6064 10.5553 28.5732C10.8269 28.4109 11.0924 28.2396 11.3587 28.0688C11.5745 27.9306 11.7908 27.7933 12.0076 27.6565C12.0739 27.6141 12.0739 27.6141 12.1416 27.5708C12.1833 27.5446 12.225 27.5183 12.268 27.4913C12.305 27.4678 12.3421 27.4443 12.3803 27.42C12.4879 27.3623 12.5835 27.3331 12.7031 27.3094C12.7208 27.337 12.7384 27.3647 12.7566 27.3932C12.7814 27.432 12.8061 27.4707 12.8316 27.5107C12.859 27.5535 12.8863 27.5963 12.9145 27.6404C12.9741 27.7337 13.0338 27.827 13.0936 27.9203C13.3492 28.3193 13.3492 28.3193 13.4692 28.5147C13.5162 28.5905 13.5162 28.5905 13.5642 28.6678C13.5903 28.7107 13.6164 28.7536 13.6433 28.7977C13.7848 28.9841 13.9337 29.1042 14.1584 29.1751C14.4084 29.1801 14.5632 29.0909 14.7493 28.9315C14.8451 28.7316 14.8393 28.5413 14.8101 28.324C14.7468 28.1643 14.657 28.0287 14.5602 27.8868C14.5338 27.8461 14.5074 27.8054 14.4801 27.7635C14.4229 27.6756 14.3652 27.5879 14.3071 27.5006C14.1814 27.3109 14.0591 27.1192 13.9365 26.9276C13.8403 26.7775 13.7437 26.6278 13.6469 26.4781C13.4506 26.1744 13.2549 25.8704 13.0612 25.5651C12.9089 25.3253 12.7546 25.0869 12.5982 24.8496C12.5251 24.7372 12.4521 24.6248 12.379 24.5125C12.3275 24.4354 12.3275 24.4354 12.2749 24.3568C11.9208 23.8084 11.6978 23.2293 11.8083 22.5775C11.9445 21.9819 12.2492 21.5414 12.7631 21.2034C13.3274 20.883 13.8302 20.8167 14.4589 20.9813C15.0472 21.1788 15.4862 21.5343 15.7826 22.076C15.8004 22.1465 15.8182 22.217 15.8366 22.2896C16.3714 21.9724 16.3714 21.9724 16.9171 21.6488C16.448 20.8143 15.9244 20.262 15.0262 19.8865C14.9828 19.8683 14.9394 19.85 14.8947 19.8312C14.1212 19.5682 13.1627 19.6513 12.433 19.9933C12.222 20.1036 12.0298 20.2258 11.8387 20.3671C11.7967 20.3977 11.7546 20.4283 11.7113 20.4598C11.1071 20.9416 10.6955 21.6918 10.5961 22.4498C10.5229 23.5485 10.8115 24.3487 11.4099 25.2668C11.4378 25.3101 11.4657 25.3534 11.4944 25.398C11.5218 25.4403 11.5491 25.4826 11.5773 25.5263C11.6033 25.5666 11.6294 25.607 11.6562 25.6486C11.7027 25.7186 11.7507 25.7877 11.8007 25.8553C11.9488 26.0557 11.9488 26.0557 11.9382 26.1875C11.8789 26.3275 11.8128 26.3657 11.6823 26.4441C11.6396 26.4699 11.5969 26.4957 11.5529 26.5223C11.5079 26.5486 11.463 26.5748 11.4167 26.6018C11.3723 26.6289 11.328 26.6559 11.2823 26.6838C10.9488 26.8822 10.9488 26.8822 10.7042 26.8822C10.627 26.7951 10.627 26.7951 10.5565 26.6729C10.5301 26.6283 10.5038 26.5836 10.4766 26.5376C10.4492 26.4894 10.4218 26.4412 10.3936 26.3915C10.3358 26.2929 10.2781 26.1943 10.2203 26.0957C10.1782 26.0232 10.1782 26.0232 10.1353 25.9492C10.0332 25.7756 9.92516 25.6065 9.81616 25.437C9.13428 24.3434 8.92859 23.0389 9.21851 21.7789C9.44866 21.0233 9.80377 20.3741 10.326 19.7797C10.3784 19.7199 10.3784 19.7199 10.4318 19.6589C11.3069 18.732 12.5339 18.2751 13.7938 18.2744Z" fill="white"/>
<path d="M20.0278 26.5C26.8087 26.5 32.3056 21.003 32.3056 14.2221C32.3056 7.4413 26.8087 1.94434 20.0278 1.94434C13.247 1.94434 7.75 7.4413 7.75 14.2221C7.75 21.003 13.247 26.5 20.0278 26.5Z" fill="#09573A"/>
<path d="M20.0278 25.0556C26.8087 25.0556 32.3056 19.5587 32.3056 12.7778C32.3056 5.99696 26.8087 0.5 20.0278 0.5C13.247 0.5 7.75 5.99696 7.75 12.7778C7.75 19.5587 13.247 25.0556 20.0278 25.0556Z" fill="#89D6BA"/>
<path d="M20.0272 23.6109C25.6114 23.6109 30.1383 19.084 30.1383 13.4998C30.1383 7.91558 25.6114 3.38867 20.0272 3.38867C14.4429 3.38867 9.91602 7.91558 9.91602 13.4998C9.91602 19.084 14.4429 23.6109 20.0272 23.6109Z" fill="#89D6BA"/>
<path d="M20.0272 22.8893C25.6114 22.8893 30.1383 18.3624 30.1383 12.7781C30.1383 7.1939 25.6114 2.66699 20.0272 2.66699C14.4429 2.66699 9.91602 7.1939 9.91602 12.7781C9.91602 18.3624 14.4429 22.8893 20.0272 22.8893Z" fill="#0D744E"/>
<path d="M19.7938 5.27445C19.8576 5.2738 19.9214 5.27314 19.9872 5.27247C21.142 5.27057 22.2218 5.69475 23.0792 6.4593C23.1161 6.49145 23.153 6.5236 23.191 6.55672C23.9162 7.22718 24.4463 8.22008 24.916 9.07599C24.5646 9.32425 24.2076 9.55795 23.8389 9.78023C23.7393 9.84069 23.6398 9.90118 23.5403 9.96171C23.4905 9.99199 23.4407 10.0223 23.3894 10.0534C23.1589 10.1944 22.9299 10.3377 22.701 10.4811C22.5389 10.5824 22.3769 10.6837 22.2148 10.7849C22.1782 10.8077 22.1416 10.8305 22.1039 10.8541C22.0049 10.9158 21.9056 10.9772 21.8062 11.0385C21.7515 11.0724 21.6969 11.1062 21.6405 11.1411C21.5124 11.2121 21.5124 11.2121 21.4044 11.2121C21.3386 11.1283 21.3386 11.1283 21.2653 11.0108C21.2383 10.968 21.2113 10.9251 21.1835 10.881C21.155 10.835 21.1265 10.7889 21.0971 10.7415C21.0679 10.6952 21.0387 10.6489 21.0087 10.6012C20.8843 10.4037 20.761 10.2056 20.6387 10.0068C20.6073 9.95624 20.5758 9.90572 20.5434 9.85366C20.5042 9.78933 20.5042 9.78933 20.4642 9.7237C20.3289 9.54544 20.1954 9.41725 19.9727 9.36428C19.7195 9.36193 19.6041 9.36823 19.3987 9.52657C19.2573 9.73764 19.2605 9.95276 19.2974 10.1974C19.3634 10.3603 19.4551 10.4996 19.554 10.6447C19.5807 10.6858 19.6074 10.7269 19.635 10.7692C19.6914 10.8559 19.7482 10.9423 19.8055 11.0285C19.9167 11.1965 20.0245 11.3665 20.1324 11.5366C20.2132 11.6639 20.2945 11.7909 20.376 11.9178C20.566 12.2138 20.7553 12.5102 20.9446 12.8066C21.0827 13.0229 21.221 13.239 21.3598 13.4547C21.496 13.6664 21.6314 13.8785 21.766 14.0911C21.8104 14.1613 21.855 14.2314 21.8998 14.3013C22.1116 14.6334 22.2825 14.9293 22.3228 15.324C22.3272 15.361 22.3316 15.3979 22.3361 15.436C22.3683 15.9678 22.1614 16.4963 21.8387 16.9144C21.4653 17.316 20.9696 17.5763 20.4212 17.6405C19.8055 17.6629 19.3299 17.4756 18.8433 17.1092C18.6034 16.8871 18.426 16.6241 18.2709 16.3386C18.2709 16.3034 18.2709 16.2682 18.2709 16.2318C17.907 16.4399 17.5454 16.65 17.1904 16.8727C17.6726 17.7647 18.2932 18.3835 19.2757 18.7067C20.1528 18.9435 21.0999 18.8251 21.8969 18.4065C22.6749 17.947 23.2114 17.2551 23.4506 16.3887C23.7017 15.1507 23.312 14.1946 22.6368 13.1646C22.6029 13.1123 22.5689 13.06 22.5339 13.0061C22.4108 12.8167 22.2871 12.6277 22.1607 12.4403C22.1677 12.3327 22.1677 12.3327 22.2148 12.2267C22.3076 12.1494 22.3076 12.1494 22.4271 12.0792C22.47 12.0536 22.513 12.0281 22.5573 12.0017C22.6025 11.9757 22.6477 11.9498 22.6942 11.923C22.739 11.8964 22.7838 11.8698 22.8299 11.8424C23.1595 11.6484 23.1595 11.6484 23.3493 11.5859C25.3223 14.6496 25.3223 14.6496 24.9122 16.5992C24.7016 17.4397 24.3173 18.1535 23.7275 18.7951C23.6977 18.8289 23.668 18.8626 23.6373 18.8973C22.93 19.6535 21.8105 20.196 20.7738 20.2436C19.2781 20.2826 18.056 20.0106 16.9359 18.9685C16.8951 18.9289 16.8543 18.8893 16.8122 18.8485C16.7594 18.7982 16.7594 18.7982 16.7055 18.7469C16.3432 18.3749 16.0856 17.9235 15.814 17.4856C15.7083 17.3156 15.6011 17.1465 15.4939 16.9774C15.3928 16.8181 15.2922 16.6585 15.1915 16.4989C15.4358 16.2226 15.7352 16.0566 16.0525 15.8714C16.1653 15.8046 16.2781 15.7377 16.3908 15.6707C16.4451 15.6385 16.4994 15.6064 16.5553 15.5732C16.8269 15.4109 17.0924 15.2396 17.3587 15.0688C17.5745 14.9306 17.7908 14.7933 18.0076 14.6565C18.0739 14.6141 18.0739 14.6141 18.1416 14.5708C18.1833 14.5446 18.225 14.5183 18.268 14.4913C18.305 14.4678 18.3421 14.4443 18.3803 14.42C18.4879 14.3623 18.5835 14.3331 18.7031 14.3094C18.7208 14.337 18.7384 14.3647 18.7566 14.3932C18.7814 14.432 18.8061 14.4707 18.8316 14.5107C18.859 14.5535 18.8863 14.5963 18.9145 14.6404C18.9741 14.7337 19.0338 14.827 19.0936 14.9203C19.3492 15.3193 19.3492 15.3193 19.4692 15.5147C19.5162 15.5905 19.5162 15.5905 19.5642 15.6678C19.5903 15.7107 19.6164 15.7536 19.6433 15.7977C19.7848 15.9841 19.9337 16.1042 20.1584 16.1751C20.4084 16.1801 20.5632 16.0909 20.7493 15.9315C20.8451 15.7316 20.8393 15.5413 20.8101 15.324C20.7468 15.1643 20.657 15.0287 20.5602 14.8868C20.5338 14.8461 20.5074 14.8054 20.4801 14.7635C20.4229 14.6756 20.3652 14.5879 20.3071 14.5006C20.1814 14.3109 20.0591 14.1192 19.9365 13.9276C19.8403 13.7775 19.7437 13.6278 19.6469 13.4781C19.4506 13.1744 19.2549 12.8704 19.0612 12.5651C18.9089 12.3253 18.7546 12.0869 18.5982 11.8496C18.5251 11.7372 18.4521 11.6248 18.379 11.5125C18.3275 11.4354 18.3275 11.4354 18.2749 11.3568C17.9208 10.8084 17.6978 10.2293 17.8083 9.57747C17.9445 8.98187 18.2492 8.54137 18.7631 8.20342C19.3274 7.88303 19.8302 7.81669 20.4589 7.98126C21.0472 8.17875 21.4862 8.5343 21.7826 9.07599C21.8004 9.14648 21.8182 9.21698 21.8366 9.2896C22.3714 8.97239 22.3714 8.97239 22.9171 8.64878C22.448 7.81426 21.9244 7.26201 21.0262 6.88652C20.9828 6.86828 20.9394 6.85003 20.8947 6.83124C20.1212 6.5682 19.1627 6.65125 18.433 6.99332C18.222 7.10364 18.0298 7.22581 17.8387 7.36713C17.7967 7.3977 17.7546 7.42826 17.7113 7.45975C17.1071 7.9416 16.6955 8.69176 16.5961 9.44981C16.5229 10.5485 16.8115 11.3487 17.4099 12.2668C17.4378 12.3101 17.4657 12.3534 17.4944 12.398C17.5218 12.4403 17.5491 12.4826 17.5773 12.5263C17.6033 12.5666 17.6294 12.607 17.6562 12.6486C17.7027 12.7186 17.7507 12.7877 17.8007 12.8553C17.9488 13.0557 17.9488 13.0557 17.9382 13.1875C17.8789 13.3275 17.8128 13.3657 17.6823 13.4441C17.6396 13.4699 17.5969 13.4957 17.5529 13.5223C17.5079 13.5486 17.463 13.5748 17.4167 13.6018C17.3723 13.6289 17.328 13.6559 17.2823 13.6838C16.9488 13.8822 16.9488 13.8822 16.7042 13.8822C16.627 13.7951 16.627 13.7951 16.5565 13.6729C16.5301 13.6283 16.5038 13.5836 16.4766 13.5376C16.4492 13.4894 16.4218 13.4412 16.3936 13.3915C16.3358 13.2929 16.2781 13.1943 16.2203 13.0957C16.1782 13.0232 16.1782 13.0232 16.1353 12.9492C16.0332 12.7756 15.9252 12.6065 15.8162 12.437C15.1343 11.3434 14.9286 10.0389 15.2185 8.77895C15.4487 8.02328 15.8038 7.37409 16.326 6.77971C16.3784 6.71993 16.3784 6.71993 16.4318 6.65893C17.3069 5.73196 18.5339 5.27512 19.7938 5.27445Z" fill="white"/>
<path d="M28.0278 39.5C34.8087 39.5 40.3056 34.003 40.3056 27.2221C40.3056 20.4413 34.8087 14.9443 28.0278 14.9443C21.247 14.9443 15.75 20.4413 15.75 27.2221C15.75 34.003 21.247 39.5 28.0278 39.5Z" fill="#09573A"/>
<path d="M28.0278 38.0556C34.8087 38.0556 40.3056 32.5587 40.3056 25.7778C40.3056 18.997 34.8087 13.5 28.0278 13.5C21.247 13.5 15.75 18.997 15.75 25.7778C15.75 32.5587 21.247 38.0556 28.0278 38.0556Z" fill="#89D6BA"/>
<path d="M28.0272 36.6109C33.6114 36.6109 38.1383 32.084 38.1383 26.4998C38.1383 20.9156 33.6114 16.3887 28.0272 16.3887C22.4429 16.3887 17.916 20.9156 17.916 26.4998C17.916 32.084 22.4429 36.6109 28.0272 36.6109Z" fill="#89D6BA"/>
<path d="M28.0272 35.8893C33.6114 35.8893 38.1383 31.3624 38.1383 25.7781C38.1383 20.1939 33.6114 15.667 28.0272 15.667C22.4429 15.667 17.916 20.1939 17.916 25.7781C17.916 31.3624 22.4429 35.8893 28.0272 35.8893Z" fill="#0D744E"/>
<path d="M27.7938 18.2744C27.8576 18.2738 27.9214 18.2731 27.9872 18.2725C29.142 18.2706 30.2218 18.6948 31.0792 19.4593C31.1161 19.4915 31.153 19.5236 31.191 19.5567C31.9162 20.2272 32.4463 21.2201 32.916 22.076C32.5646 22.3242 32.2076 22.558 31.8389 22.7802C31.7393 22.8407 31.6398 22.9012 31.5403 22.9617C31.4905 22.992 31.4407 23.0223 31.3894 23.0534C31.1589 23.1944 30.9299 23.3377 30.701 23.4811C30.5389 23.5824 30.3769 23.6837 30.2148 23.7849C30.1782 23.8077 30.1416 23.8305 30.1039 23.8541C30.0049 23.9158 29.9056 23.9772 29.8062 24.0385C29.7515 24.0724 29.6969 24.1062 29.6405 24.1411C29.5124 24.2121 29.5124 24.2121 29.4044 24.2121C29.3386 24.1283 29.3386 24.1283 29.2653 24.0108C29.2383 23.968 29.2113 23.9251 29.1835 23.881C29.155 23.835 29.1265 23.7889 29.0971 23.7415C29.0679 23.6952 29.0387 23.6489 29.0087 23.6012C28.8843 23.4037 28.761 23.2056 28.6387 23.0068C28.6073 22.9562 28.5758 22.9057 28.5434 22.8537C28.5042 22.7893 28.5042 22.7893 28.4642 22.7237C28.3289 22.5454 28.1954 22.4172 27.9727 22.3643C27.7195 22.3619 27.6041 22.3682 27.3987 22.5266C27.2573 22.7376 27.2605 22.9528 27.2974 23.1974C27.3634 23.3603 27.4551 23.4996 27.554 23.6447C27.5807 23.6858 27.6074 23.7269 27.635 23.7692C27.6914 23.8559 27.7482 23.9423 27.8055 24.0285C27.9167 24.1965 28.0245 24.3665 28.1324 24.5366C28.2132 24.6639 28.2945 24.7909 28.376 24.9178C28.566 25.2138 28.7553 25.5102 28.9446 25.8066C29.0827 26.0229 29.221 26.239 29.3598 26.4547C29.496 26.6664 29.6314 26.8785 29.766 27.0911C29.8104 27.1613 29.855 27.2314 29.8998 27.3013C30.1116 27.6334 30.2825 27.9293 30.3228 28.324C30.3272 28.361 30.3316 28.3979 30.3361 28.436C30.3683 28.9678 30.1614 29.4963 29.8387 29.9144C29.4653 30.316 28.9696 30.5763 28.4212 30.6405C27.8055 30.6629 27.3299 30.4756 26.8433 30.1092C26.6034 29.8871 26.426 29.6241 26.2709 29.3386C26.2709 29.3034 26.2709 29.2682 26.2709 29.2318C25.907 29.4399 25.5454 29.65 25.1904 29.8727C25.6726 30.7647 26.2932 31.3835 27.2757 31.7067C28.1528 31.9435 29.0999 31.8251 29.8969 31.4065C30.6749 30.947 31.2114 30.2551 31.4506 29.3887C31.7017 28.1507 31.312 27.1946 30.6368 26.1646C30.6029 26.1123 30.5689 26.06 30.5339 26.0061C30.4108 25.8167 30.2871 25.6277 30.1607 25.4403C30.1677 25.3327 30.1677 25.3327 30.2148 25.2267C30.3076 25.1494 30.3076 25.1494 30.4271 25.0792C30.47 25.0536 30.513 25.0281 30.5573 25.0017C30.6025 24.9757 30.6477 24.9498 30.6942 24.923C30.739 24.8964 30.7838 24.8698 30.8299 24.8424C31.1595 24.6484 31.1595 24.6484 31.3493 24.5859C33.3223 27.6496 33.3223 27.6496 32.9122 29.5992C32.7016 30.4397 32.3173 31.1535 31.7275 31.7951C31.6977 31.8289 31.668 31.8626 31.6373 31.8973C30.93 32.6535 29.8105 33.196 28.7738 33.2436C27.2781 33.2826 26.056 33.0106 24.9359 31.9685C24.8951 31.9289 24.8543 31.8893 24.8122 31.8485C24.7594 31.7982 24.7594 31.7982 24.7055 31.7469C24.3432 31.3749 24.0856 30.9235 23.814 30.4856C23.7083 30.3156 23.6011 30.1465 23.4939 29.9774C23.3928 29.8181 23.2922 29.6585 23.1915 29.4989C23.4358 29.2226 23.7352 29.0566 24.0525 28.8714C24.1653 28.8046 24.2781 28.7377 24.3908 28.6707C24.4451 28.6385 24.4994 28.6064 24.5553 28.5732C24.8269 28.4109 25.0924 28.2396 25.3587 28.0688C25.5745 27.9306 25.7908 27.7933 26.0076 27.6565C26.0739 27.6141 26.0739 27.6141 26.1416 27.5708C26.1833 27.5446 26.225 27.5183 26.268 27.4913C26.305 27.4678 26.3421 27.4443 26.3803 27.42C26.4879 27.3623 26.5835 27.3331 26.7031 27.3094C26.7208 27.337 26.7384 27.3647 26.7566 27.3932C26.7814 27.432 26.8061 27.4707 26.8316 27.5107C26.859 27.5535 26.8863 27.5963 26.9145 27.6404C26.9741 27.7337 27.0338 27.827 27.0936 27.9203C27.3492 28.3193 27.3492 28.3193 27.4692 28.5147C27.5162 28.5905 27.5162 28.5905 27.5642 28.6678C27.5903 28.7107 27.6164 28.7536 27.6433 28.7977C27.7848 28.9841 27.9337 29.1042 28.1584 29.1751C28.4084 29.1801 28.5632 29.0909 28.7493 28.9315C28.8451 28.7316 28.8393 28.5413 28.8101 28.324C28.7468 28.1643 28.657 28.0287 28.5602 27.8868C28.5338 27.8461 28.5074 27.8054 28.4801 27.7635C28.4229 27.6756 28.3652 27.5879 28.3071 27.5006C28.1814 27.3109 28.0591 27.1192 27.9365 26.9276C27.8403 26.7775 27.7437 26.6278 27.6469 26.4781C27.4506 26.1744 27.2549 25.8704 27.0612 25.5651C26.9089 25.3253 26.7546 25.0869 26.5982 24.8496C26.5251 24.7372 26.4521 24.6248 26.379 24.5125C26.3275 24.4354 26.3275 24.4354 26.2749 24.3568C25.9208 23.8084 25.6978 23.2293 25.8083 22.5775C25.9445 21.9819 26.2492 21.5414 26.7631 21.2034C27.3274 20.883 27.8302 20.8167 28.4589 20.9813C29.0472 21.1788 29.4862 21.5343 29.7826 22.076C29.8004 22.1465 29.8182 22.217 29.8366 22.2896C30.3714 21.9724 30.3714 21.9724 30.9171 21.6488C30.448 20.8143 29.9244 20.262 29.0262 19.8865C28.9828 19.8683 28.9394 19.85 28.8947 19.8312C28.1212 19.5682 27.1627 19.6513 26.433 19.9933C26.222 20.1036 26.0298 20.2258 25.8387 20.3671C25.7967 20.3977 25.7546 20.4283 25.7113 20.4598C25.1071 20.9416 24.6955 21.6918 24.5961 22.4498C24.5229 23.5485 24.8115 24.3487 25.4099 25.2668C25.4378 25.3101 25.4657 25.3534 25.4944 25.398C25.5218 25.4403 25.5491 25.4826 25.5773 25.5263C25.6033 25.5666 25.6294 25.607 25.6562 25.6486C25.7027 25.7186 25.7507 25.7877 25.8007 25.8553C25.9488 26.0557 25.9488 26.0557 25.9382 26.1875C25.8789 26.3275 25.8128 26.3657 25.6823 26.4441C25.6396 26.4699 25.5969 26.4957 25.5529 26.5223C25.5079 26.5486 25.463 26.5748 25.4167 26.6018C25.3723 26.6289 25.328 26.6559 25.2823 26.6838C24.9488 26.8822 24.9488 26.8822 24.7042 26.8822C24.627 26.7951 24.627 26.7951 24.5565 26.6729C24.5301 26.6283 24.5038 26.5836 24.4766 26.5376C24.4492 26.4894 24.4218 26.4412 24.3936 26.3915C24.3358 26.2929 24.2781 26.1943 24.2203 26.0957C24.1782 26.0232 24.1782 26.0232 24.1353 25.9492C24.0332 25.7756 23.9252 25.6065 23.8162 25.437C23.1343 24.3434 22.9286 23.0389 23.2185 21.7789C23.4487 21.0233 23.8038 20.3741 24.326 19.7797C24.3784 19.7199 24.3784 19.7199 24.4318 19.6589C25.3069 18.732 26.5339 18.2751 27.7938 18.2744Z" fill="white"/>
</g>
<defs>
<clipPath id="clip0_354_4948">
<rect width="39.5" height="39.5" fill="white" transform="translate(0.75 0.5)"/>
</clipPath>
</defs>
</svg>
