<svg width="41" height="40" viewBox="0 0 41 40" fill="none" xmlns="http://www.w3.org/2000/svg">
<g clip-path="url(#clip0_354_5077)">
<path d="M13.0278 39C19.8087 39 25.3056 33.503 25.3056 26.7221C25.3056 19.9413 19.8087 14.4443 13.0278 14.4443C6.24696 14.4443 0.75 19.9413 0.75 26.7221C0.75 33.503 6.24696 39 13.0278 39Z" fill="#09573A"/>
<path d="M13.0278 37.5556C19.8087 37.5556 25.3056 32.0587 25.3056 25.2778C25.3056 18.497 19.8087 13 13.0278 13C6.24696 13 0.75 18.497 0.75 25.2778C0.75 32.0587 6.24696 37.5556 13.0278 37.5556Z" fill="#89D6BA"/>
<path d="M13.0272 36.1109C18.6114 36.1109 23.1383 31.584 23.1383 25.9998C23.1383 20.4156 18.6114 15.8887 13.0272 15.8887C7.44293 15.8887 2.91602 20.4156 2.91602 25.9998C2.91602 31.584 7.44293 36.1109 13.0272 36.1109Z" fill="#89D6BA"/>
<path d="M13.0272 35.3893C18.6114 35.3893 23.1383 30.8624 23.1383 25.2781C23.1383 19.6939 18.6114 15.167 13.0272 15.167C7.44293 15.167 2.91602 19.6939 2.91602 25.2781C2.91602 30.8624 7.44293 35.3893 13.0272 35.3893Z" fill="#0D744E"/>
<path d="M12.7938 17.7744C12.8576 17.7738 12.9214 17.7731 12.9872 17.7725C14.142 17.7706 15.2218 18.1948 16.0792 18.9593C16.1161 18.9915 16.153 19.0236 16.191 19.0567C16.9162 19.7272 17.4463 20.7201 17.916 21.576C17.5646 21.8242 17.2076 22.058 16.8389 22.2802C16.7393 22.3407 16.6398 22.4012 16.5403 22.4617C16.4905 22.492 16.4407 22.5223 16.3894 22.5534C16.1589 22.6944 15.9299 22.8377 15.701 22.9811C15.5389 23.0824 15.3769 23.1837 15.2148 23.2849C15.1782 23.3077 15.1416 23.3305 15.1039 23.3541C15.0049 23.4158 14.9056 23.4772 14.8062 23.5385C14.7515 23.5724 14.6969 23.6062 14.6405 23.6411C14.5124 23.7121 14.5124 23.7121 14.4044 23.7121C14.3386 23.6283 14.3386 23.6283 14.2653 23.5108C14.2383 23.468 14.2113 23.4251 14.1835 23.381C14.155 23.335 14.1265 23.2889 14.0971 23.2415C14.0679 23.1952 14.0387 23.1489 14.0087 23.1012C13.8843 22.9037 13.761 22.7056 13.6387 22.5068C13.6073 22.4562 13.5758 22.4057 13.5434 22.3537C13.5042 22.2893 13.5042 22.2893 13.4642 22.2237C13.3289 22.0454 13.1954 21.9172 12.9727 21.8643C12.7195 21.8619 12.6041 21.8682 12.3987 22.0266C12.2573 22.2376 12.2605 22.4528 12.2974 22.6974C12.3634 22.8603 12.4551 22.9996 12.554 23.1447C12.5807 23.1858 12.6074 23.2269 12.635 23.2692C12.6914 23.3559 12.7482 23.4423 12.8055 23.5285C12.9167 23.6965 13.0245 23.8665 13.1324 24.0366C13.2132 24.1639 13.2945 24.2909 13.376 24.4178C13.566 24.7138 13.7553 25.0102 13.9446 25.3066C14.0827 25.5229 14.221 25.739 14.3598 25.9547C14.496 26.1664 14.6314 26.3785 14.766 26.5911C14.8104 26.6613 14.855 26.7314 14.8998 26.8013C15.1116 27.1334 15.2825 27.4293 15.3228 27.824C15.3272 27.861 15.3316 27.8979 15.3361 27.936C15.3683 28.4678 15.1614 28.9963 14.8387 29.4144C14.4653 29.816 13.9696 30.0763 13.4212 30.1405C12.8055 30.1629 12.3299 29.9756 11.8433 29.6092C11.6034 29.3871 11.426 29.1241 11.2709 28.8386C11.2709 28.8034 11.2709 28.7682 11.2709 28.7318C10.907 28.9399 10.5454 29.15 10.1904 29.3727C10.6726 30.2647 11.2932 30.8835 12.2757 31.2067C13.1528 31.4435 14.0999 31.3251 14.8969 30.9065C15.6749 30.447 16.2114 29.7551 16.4506 28.8887C16.7017 27.6507 16.312 26.6946 15.6368 25.6646C15.6029 25.6123 15.5689 25.56 15.5339 25.5061C15.4108 25.3167 15.2871 25.1277 15.1607 24.9403C15.1677 24.8327 15.1677 24.8327 15.2148 24.7267C15.3076 24.6494 15.3076 24.6494 15.4271 24.5792C15.47 24.5536 15.513 24.5281 15.5573 24.5017C15.6025 24.4757 15.6477 24.4498 15.6942 24.423C15.739 24.3964 15.7838 24.3698 15.8299 24.3424C16.1595 24.1484 16.1595 24.1484 16.3493 24.0859C18.3223 27.1496 18.3223 27.1496 17.9122 29.0992C17.7016 29.9397 17.3173 30.6535 16.7275 31.2951C16.6977 31.3289 16.668 31.3626 16.6373 31.3973C15.93 32.1535 14.8105 32.696 13.7738 32.7436C12.2781 32.7826 11.056 32.5106 9.93592 31.4685C9.89511 31.4289 9.8543 31.3893 9.81225 31.3485C9.75939 31.2982 9.75939 31.2982 9.70547 31.2469C9.34319 30.8749 9.08564 30.4235 8.814 29.9856C8.7083 29.8156 8.60113 29.6465 8.49389 29.4774C8.39281 29.3181 8.29216 29.1585 8.1915 28.9989C8.43577 28.7226 8.73517 28.5566 9.05252 28.3714C9.16533 28.3046 9.27809 28.2377 9.39081 28.1707C9.44509 28.1385 9.49937 28.1064 9.55529 28.0732C9.82688 27.9109 10.0924 27.7396 10.3587 27.5688C10.5745 27.4306 10.7908 27.2933 11.0076 27.1565C11.0739 27.1141 11.0739 27.1141 11.1416 27.0708C11.1833 27.0446 11.225 27.0183 11.268 26.9913C11.305 26.9678 11.3421 26.9443 11.3803 26.92C11.4879 26.8623 11.5835 26.8331 11.7031 26.8094C11.7208 26.837 11.7384 26.8647 11.7566 26.8932C11.7814 26.932 11.8061 26.9707 11.8316 27.0107C11.859 27.0535 11.8863 27.0963 11.9145 27.1404C11.9741 27.2337 12.0338 27.327 12.0936 27.4203C12.3492 27.8193 12.3492 27.8193 12.4692 28.0147C12.5162 28.0905 12.5162 28.0905 12.5642 28.1678C12.5903 28.2107 12.6164 28.2536 12.6433 28.2977C12.7848 28.4841 12.9337 28.6042 13.1584 28.6751C13.4084 28.6801 13.5632 28.5909 13.7493 28.4315C13.8451 28.2316 13.8393 28.0413 13.8101 27.824C13.7468 27.6643 13.657 27.5287 13.5602 27.3868C13.5338 27.3461 13.5074 27.3054 13.4801 27.2635C13.4229 27.1756 13.3652 27.0879 13.3071 27.0006C13.1814 26.8109 13.0591 26.6192 12.9365 26.4276C12.8403 26.2775 12.7437 26.1278 12.6469 25.9781C12.4506 25.6744 12.2549 25.3704 12.0612 25.0651C11.9089 24.8253 11.7546 24.5869 11.5982 24.3496C11.5251 24.2372 11.4521 24.1248 11.379 24.0125C11.3275 23.9354 11.3275 23.9354 11.2749 23.8568C10.9208 23.3084 10.6978 22.7293 10.8083 22.0775C10.9445 21.4819 11.2492 21.0414 11.7631 20.7034C12.3274 20.383 12.8302 20.3167 13.4589 20.4813C14.0472 20.6788 14.4862 21.0343 14.7826 21.576C14.8004 21.6465 14.8182 21.717 14.8366 21.7896C15.3714 21.4724 15.3714 21.4724 15.9171 21.1488C15.448 20.3143 14.9244 19.762 14.0262 19.3865C13.9828 19.3683 13.9394 19.35 13.8947 19.3312C13.1212 19.0682 12.1627 19.1513 11.433 19.4933C11.222 19.6036 11.0298 19.7258 10.8387 19.8671C10.7967 19.8977 10.7546 19.9283 10.7113 19.9598C10.1071 20.4416 9.69554 21.1918 9.59615 21.9498C9.52289 23.0485 9.81154 23.8487 10.4099 24.7668C10.4378 24.8101 10.4657 24.8534 10.4944 24.898C10.5218 24.9403 10.5491 24.9826 10.5773 25.0263C10.6033 25.0666 10.6294 25.107 10.6562 25.1486C10.7027 25.2186 10.7507 25.2877 10.8007 25.3553C10.9488 25.5557 10.9488 25.5557 10.9382 25.6875C10.8789 25.8275 10.8128 25.8657 10.6823 25.9441C10.6396 25.9699 10.5969 25.9957 10.5529 26.0223C10.5079 26.0486 10.463 26.0748 10.4167 26.1018C10.3723 26.1289 10.328 26.1559 10.2823 26.1838C9.94883 26.3822 9.94883 26.3822 9.7042 26.3822C9.62701 26.2951 9.62701 26.2951 9.55647 26.1729C9.53012 26.1283 9.50376 26.0836 9.47661 26.0376C9.4492 25.9894 9.42179 25.9412 9.39356 25.8915C9.33584 25.7929 9.27809 25.6943 9.2203 25.5957C9.17824 25.5232 9.17824 25.5232 9.13533 25.4492C9.03324 25.2756 8.92516 25.1065 8.81616 24.937C8.13428 23.8434 7.92859 22.5389 8.21851 21.2789C8.44866 20.5233 8.80377 19.8741 9.32602 19.2797C9.37836 19.2199 9.37836 19.2199 9.43175 19.1589C10.3069 18.232 11.5339 17.7751 12.7938 17.7744Z" fill="white"/>
<path d="M13.0278 26C19.8087 26 25.3056 20.503 25.3056 13.7221C25.3056 6.9413 19.8087 1.44434 13.0278 1.44434C6.24696 1.44434 0.75 6.9413 0.75 13.7221C0.75 20.503 6.24696 26 13.0278 26Z" fill="#09573A"/>
<path d="M13.0278 24.5556C19.8087 24.5556 25.3056 19.0587 25.3056 12.2778C25.3056 5.49696 19.8087 0 13.0278 0C6.24696 0 0.75 5.49696 0.75 12.2778C0.75 19.0587 6.24696 24.5556 13.0278 24.5556Z" fill="#89D6BA"/>
<path d="M13.0272 23.1109C18.6114 23.1109 23.1383 18.584 23.1383 12.9998C23.1383 7.41558 18.6114 2.88867 13.0272 2.88867C7.44293 2.88867 2.91602 7.41558 2.91602 12.9998C2.91602 18.584 7.44293 23.1109 13.0272 23.1109Z" fill="#89D6BA"/>
<path d="M13.0272 22.3893C18.6114 22.3893 23.1383 17.8624 23.1383 12.2781C23.1383 6.6939 18.6114 2.16699 13.0272 2.16699C7.44293 2.16699 2.91602 6.6939 2.91602 12.2781C2.91602 17.8624 7.44293 22.3893 13.0272 22.3893Z" fill="#0D744E"/>
<path d="M12.7938 4.77445C12.8576 4.7738 12.9214 4.77314 12.9872 4.77247C14.142 4.77057 15.2218 5.19475 16.0792 5.9593C16.1161 5.99145 16.153 6.0236 16.191 6.05672C16.9162 6.72718 17.4463 7.72008 17.916 8.57599C17.5646 8.82425 17.2076 9.05795 16.8389 9.28023C16.7393 9.34069 16.6398 9.40118 16.5403 9.46171C16.4905 9.49199 16.4407 9.52226 16.3894 9.55345C16.1589 9.69438 15.9299 9.83768 15.701 9.98113C15.5389 10.0824 15.3769 10.1837 15.2148 10.2849C15.1782 10.3077 15.1416 10.3305 15.1039 10.3541C15.0049 10.4158 14.9056 10.4772 14.8062 10.5385C14.7515 10.5724 14.6969 10.6062 14.6405 10.6411C14.5124 10.7121 14.5124 10.7121 14.4044 10.7121C14.3386 10.6283 14.3386 10.6283 14.2653 10.5108C14.2383 10.468 14.2113 10.4251 14.1835 10.381C14.155 10.335 14.1265 10.2889 14.0971 10.2415C14.0679 10.1952 14.0387 10.1489 14.0087 10.1012C13.8843 9.9037 13.761 9.70558 13.6387 9.50677C13.6073 9.45624 13.5758 9.40572 13.5434 9.35366C13.5042 9.28933 13.5042 9.28933 13.4642 9.2237C13.3289 9.04544 13.1954 8.91725 12.9727 8.86428C12.7195 8.86193 12.6041 8.86823 12.3987 9.02657C12.2573 9.23764 12.2605 9.45276 12.2974 9.69743C12.3634 9.86027 12.4551 9.99956 12.554 10.1447C12.5807 10.1858 12.6074 10.2269 12.635 10.2692C12.6914 10.3559 12.7482 10.4423 12.8055 10.5285C12.9167 10.6965 13.0245 10.8665 13.1324 11.0366C13.2132 11.1639 13.2945 11.2909 13.376 11.4178C13.566 11.7138 13.7553 12.0102 13.9446 12.3066C14.0827 12.5229 14.221 12.739 14.3598 12.9547C14.496 13.1664 14.6314 13.3785 14.766 13.5911C14.8104 13.6613 14.855 13.7314 14.8998 13.8013C15.1116 14.1334 15.2825 14.4293 15.3228 14.824C15.3272 14.861 15.3316 14.8979 15.3361 14.936C15.3683 15.4678 15.1614 15.9963 14.8387 16.4144C14.4653 16.816 13.9696 17.0763 13.4212 17.1405C12.8055 17.1629 12.3299 16.9756 11.8433 16.6092C11.6034 16.3871 11.426 16.1241 11.2709 15.8386C11.2709 15.8034 11.2709 15.7682 11.2709 15.7318C10.907 15.9399 10.5454 16.15 10.1904 16.3727C10.6726 17.2647 11.2932 17.8835 12.2757 18.2067C13.1528 18.4435 14.0999 18.3251 14.8969 17.9065C15.6749 17.447 16.2114 16.7551 16.4506 15.8887C16.7017 14.6507 16.312 13.6946 15.6368 12.6646C15.6029 12.6123 15.5689 12.56 15.5339 12.5061C15.4108 12.3167 15.2871 12.1277 15.1607 11.9403C15.1677 11.8327 15.1677 11.8327 15.2148 11.7267C15.3076 11.6494 15.3076 11.6494 15.4271 11.5792C15.47 11.5536 15.513 11.5281 15.5573 11.5017C15.6025 11.4757 15.6477 11.4498 15.6942 11.423C15.739 11.3964 15.7838 11.3698 15.8299 11.3424C16.1595 11.1484 16.1595 11.1484 16.3493 11.0859C18.3223 14.1496 18.3223 14.1496 17.9122 16.0992C17.7016 16.9397 17.3173 17.6535 16.7275 18.2951C16.6977 18.3289 16.668 18.3626 16.6373 18.3973C15.93 19.1535 14.8105 19.696 13.7738 19.7436C12.2781 19.7826 11.056 19.5106 9.93592 18.4685C9.89511 18.4289 9.8543 18.3893 9.81225 18.3485C9.75939 18.2982 9.75939 18.2982 9.70547 18.2469C9.34319 17.8749 9.08564 17.4235 8.814 16.9856C8.7083 16.8156 8.60113 16.6465 8.49389 16.4774C8.39281 16.3181 8.29216 16.1585 8.1915 15.9989C8.43577 15.7226 8.73517 15.5566 9.05252 15.3714C9.16533 15.3046 9.27809 15.2377 9.39081 15.1707C9.44509 15.1385 9.49937 15.1064 9.55529 15.0732C9.82688 14.9109 10.0924 14.7396 10.3587 14.5688C10.5745 14.4306 10.7908 14.2933 11.0076 14.1565C11.0739 14.1141 11.0739 14.1141 11.1416 14.0708C11.1833 14.0446 11.225 14.0183 11.268 13.9913C11.305 13.9678 11.3421 13.9443 11.3803 13.92C11.4879 13.8623 11.5835 13.8331 11.7031 13.8094C11.7208 13.837 11.7384 13.8647 11.7566 13.8932C11.7814 13.932 11.8061 13.9707 11.8316 14.0107C11.859 14.0535 11.8863 14.0963 11.9145 14.1404C11.9741 14.2337 12.0338 14.327 12.0936 14.4203C12.3492 14.8193 12.3492 14.8193 12.4692 15.0147C12.5162 15.0905 12.5162 15.0905 12.5642 15.1678C12.5903 15.2107 12.6164 15.2536 12.6433 15.2977C12.7848 15.4841 12.9337 15.6042 13.1584 15.6751C13.4084 15.6801 13.5632 15.5909 13.7493 15.4315C13.8451 15.2316 13.8393 15.0413 13.8101 14.824C13.7468 14.6643 13.657 14.5287 13.5602 14.3868C13.5338 14.3461 13.5074 14.3054 13.4801 14.2635C13.4229 14.1756 13.3652 14.0879 13.3071 14.0006C13.1814 13.8109 13.0591 13.6192 12.9365 13.4276C12.8403 13.2775 12.7437 13.1278 12.6469 12.9781C12.4506 12.6744 12.2549 12.3704 12.0612 12.0651C11.9089 11.8253 11.7546 11.5869 11.5982 11.3496C11.5251 11.2372 11.4521 11.1248 11.379 11.0125C11.3275 10.9354 11.3275 10.9354 11.2749 10.8568C10.9208 10.3084 10.6978 9.72928 10.8083 9.07747C10.9445 8.48187 11.2492 8.04137 11.7631 7.70342C12.3274 7.38303 12.8302 7.31669 13.4589 7.48126C14.0472 7.67875 14.4862 8.0343 14.7826 8.57599C14.8004 8.64648 14.8182 8.71698 14.8366 8.7896C15.3714 8.47239 15.3714 8.47239 15.9171 8.14878C15.448 7.31426 14.9244 6.76201 14.0262 6.38652C13.9828 6.36828 13.9394 6.35003 13.8947 6.33124C13.1212 6.0682 12.1627 6.15125 11.433 6.49332C11.222 6.60364 11.0298 6.72581 10.8387 6.86713C10.7967 6.8977 10.7546 6.92826 10.7113 6.95975C10.1071 7.4416 9.69554 8.19176 9.59615 8.94981C9.52289 10.0485 9.81154 10.8487 10.4099 11.7668C10.4378 11.8101 10.4657 11.8534 10.4944 11.898C10.5218 11.9403 10.5491 11.9826 10.5773 12.0263C10.6033 12.0666 10.6294 12.107 10.6562 12.1486C10.7027 12.2186 10.7507 12.2877 10.8007 12.3553C10.9488 12.5557 10.9488 12.5557 10.9382 12.6875C10.8789 12.8275 10.8128 12.8657 10.6823 12.9441C10.6396 12.9699 10.5969 12.9957 10.5529 13.0223C10.5079 13.0486 10.463 13.0748 10.4167 13.1018C10.3723 13.1289 10.328 13.1559 10.2823 13.1838C9.94883 13.3822 9.94883 13.3822 9.7042 13.3822C9.62701 13.2951 9.62701 13.2951 9.55647 13.1729C9.53012 13.1283 9.50376 13.0836 9.47661 13.0376C9.4492 12.9894 9.42179 12.9412 9.39356 12.8915C9.33584 12.7929 9.27809 12.6943 9.2203 12.5957C9.17824 12.5232 9.17824 12.5232 9.13533 12.4492C9.03324 12.2756 8.92516 12.1065 8.81616 11.937C8.13428 10.8434 7.92859 9.53889 8.21851 8.27895C8.44866 7.52328 8.80377 6.87409 9.32602 6.27971C9.37836 6.21993 9.37836 6.21993 9.43175 6.15893C10.3069 5.23196 11.5339 4.77512 12.7938 4.77445Z" fill="white"/>
<path d="M28.0278 26C34.8087 26 40.3056 20.503 40.3056 13.7221C40.3056 6.9413 34.8087 1.44434 28.0278 1.44434C21.247 1.44434 15.75 6.9413 15.75 13.7221C15.75 20.503 21.247 26 28.0278 26Z" fill="#09573A"/>
<path d="M28.0278 24.5556C34.8087 24.5556 40.3056 19.0587 40.3056 12.2778C40.3056 5.49696 34.8087 0 28.0278 0C21.247 0 15.75 5.49696 15.75 12.2778C15.75 19.0587 21.247 24.5556 28.0278 24.5556Z" fill="#89D6BA"/>
<path d="M28.0272 23.1109C33.6114 23.1109 38.1383 18.584 38.1383 12.9998C38.1383 7.41558 33.6114 2.88867 28.0272 2.88867C22.4429 2.88867 17.916 7.41558 17.916 12.9998C17.916 18.584 22.4429 23.1109 28.0272 23.1109Z" fill="#89D6BA"/>
<path d="M28.0272 22.3893C33.6114 22.3893 38.1383 17.8624 38.1383 12.2781C38.1383 6.6939 33.6114 2.16699 28.0272 2.16699C22.4429 2.16699 17.916 6.6939 17.916 12.2781C17.916 17.8624 22.4429 22.3893 28.0272 22.3893Z" fill="#0D744E"/>
<path d="M27.7938 4.77445C27.8576 4.7738 27.9214 4.77314 27.9872 4.77247C29.142 4.77057 30.2218 5.19475 31.0792 5.9593C31.1161 5.99145 31.153 6.0236 31.191 6.05672C31.9162 6.72718 32.4463 7.72008 32.916 8.57599C32.5646 8.82425 32.2076 9.05795 31.8389 9.28023C31.7393 9.34069 31.6398 9.40118 31.5403 9.46171C31.4905 9.49199 31.4407 9.52226 31.3894 9.55345C31.1589 9.69438 30.9299 9.83768 30.701 9.98113C30.5389 10.0824 30.3769 10.1837 30.2148 10.2849C30.1782 10.3077 30.1416 10.3305 30.1039 10.3541C30.0049 10.4158 29.9056 10.4772 29.8062 10.5385C29.7515 10.5724 29.6969 10.6062 29.6405 10.6411C29.5124 10.7121 29.5124 10.7121 29.4044 10.7121C29.3386 10.6283 29.3386 10.6283 29.2653 10.5108C29.2383 10.468 29.2113 10.4251 29.1835 10.381C29.155 10.335 29.1265 10.2889 29.0971 10.2415C29.0679 10.1952 29.0387 10.1489 29.0087 10.1012C28.8843 9.9037 28.761 9.70558 28.6387 9.50677C28.6073 9.45624 28.5758 9.40572 28.5434 9.35366C28.5042 9.28933 28.5042 9.28933 28.4642 9.2237C28.3289 9.04544 28.1954 8.91725 27.9727 8.86428C27.7195 8.86193 27.6041 8.86823 27.3987 9.02657C27.2573 9.23764 27.2605 9.45276 27.2974 9.69743C27.3634 9.86027 27.4551 9.99956 27.554 10.1447C27.5807 10.1858 27.6074 10.2269 27.635 10.2692C27.6914 10.3559 27.7482 10.4423 27.8055 10.5285C27.9167 10.6965 28.0245 10.8665 28.1324 11.0366C28.2132 11.1639 28.2945 11.2909 28.376 11.4178C28.566 11.7138 28.7553 12.0102 28.9446 12.3066C29.0827 12.5229 29.221 12.739 29.3598 12.9547C29.496 13.1664 29.6314 13.3785 29.766 13.5911C29.8104 13.6613 29.855 13.7314 29.8998 13.8013C30.1116 14.1334 30.2825 14.4293 30.3228 14.824C30.3272 14.861 30.3316 14.8979 30.3361 14.936C30.3683 15.4678 30.1614 15.9963 29.8387 16.4144C29.4653 16.816 28.9696 17.0763 28.4212 17.1405C27.8055 17.1629 27.3299 16.9756 26.8433 16.6092C26.6034 16.3871 26.426 16.1241 26.2709 15.8386C26.2709 15.8034 26.2709 15.7682 26.2709 15.7318C25.907 15.9399 25.5454 16.15 25.1904 16.3727C25.6726 17.2647 26.2932 17.8835 27.2757 18.2067C28.1528 18.4435 29.0999 18.3251 29.8969 17.9065C30.6749 17.447 31.2114 16.7551 31.4506 15.8887C31.7017 14.6507 31.312 13.6946 30.6368 12.6646C30.6029 12.6123 30.5689 12.56 30.5339 12.5061C30.4108 12.3167 30.2871 12.1277 30.1607 11.9403C30.1677 11.8327 30.1677 11.8327 30.2148 11.7267C30.3076 11.6494 30.3076 11.6494 30.4271 11.5792C30.47 11.5536 30.513 11.5281 30.5573 11.5017C30.6025 11.4757 30.6477 11.4498 30.6942 11.423C30.739 11.3964 30.7838 11.3698 30.8299 11.3424C31.1595 11.1484 31.1595 11.1484 31.3493 11.0859C33.3223 14.1496 33.3223 14.1496 32.9122 16.0992C32.7016 16.9397 32.3173 17.6535 31.7275 18.2951C31.6977 18.3289 31.668 18.3626 31.6373 18.3973C30.93 19.1535 29.8105 19.696 28.7738 19.7436C27.2781 19.7826 26.056 19.5106 24.9359 18.4685C24.8951 18.4289 24.8543 18.3893 24.8122 18.3485C24.7594 18.2982 24.7594 18.2982 24.7055 18.2469C24.3432 17.8749 24.0856 17.4235 23.814 16.9856C23.7083 16.8156 23.6011 16.6465 23.4939 16.4774C23.3928 16.3181 23.2922 16.1585 23.1915 15.9989C23.4358 15.7226 23.7352 15.5566 24.0525 15.3714C24.1653 15.3046 24.2781 15.2377 24.3908 15.1707C24.4451 15.1385 24.4994 15.1064 24.5553 15.0732C24.8269 14.9109 25.0924 14.7396 25.3587 14.5688C25.5745 14.4306 25.7908 14.2933 26.0076 14.1565C26.0739 14.1141 26.0739 14.1141 26.1416 14.0708C26.1833 14.0446 26.225 14.0183 26.268 13.9913C26.305 13.9678 26.3421 13.9443 26.3803 13.92C26.4879 13.8623 26.5835 13.8331 26.7031 13.8094C26.7208 13.837 26.7384 13.8647 26.7566 13.8932C26.7814 13.932 26.8061 13.9707 26.8316 14.0107C26.859 14.0535 26.8863 14.0963 26.9145 14.1404C26.9741 14.2337 27.0338 14.327 27.0936 14.4203C27.3492 14.8193 27.3492 14.8193 27.4692 15.0147C27.5162 15.0905 27.5162 15.0905 27.5642 15.1678C27.5903 15.2107 27.6164 15.2536 27.6433 15.2977C27.7848 15.4841 27.9337 15.6042 28.1584 15.6751C28.4084 15.6801 28.5632 15.5909 28.7493 15.4315C28.8451 15.2316 28.8393 15.0413 28.8101 14.824C28.7468 14.6643 28.657 14.5287 28.5602 14.3868C28.5338 14.3461 28.5074 14.3054 28.4801 14.2635C28.4229 14.1756 28.3652 14.0879 28.3071 14.0006C28.1814 13.8109 28.0591 13.6192 27.9365 13.4276C27.8403 13.2775 27.7437 13.1278 27.6469 12.9781C27.4506 12.6744 27.2549 12.3704 27.0612 12.0651C26.9089 11.8253 26.7546 11.5869 26.5982 11.3496C26.5251 11.2372 26.4521 11.1248 26.379 11.0125C26.3275 10.9354 26.3275 10.9354 26.2749 10.8568C25.9208 10.3084 25.6978 9.72928 25.8083 9.07747C25.9445 8.48187 26.2492 8.04137 26.7631 7.70342C27.3274 7.38303 27.8302 7.31669 28.4589 7.48126C29.0472 7.67875 29.4862 8.0343 29.7826 8.57599C29.8004 8.64648 29.8182 8.71698 29.8366 8.7896C30.3714 8.47239 30.3714 8.47239 30.9171 8.14878C30.448 7.31426 29.9244 6.76201 29.0262 6.38652C28.9828 6.36828 28.9394 6.35003 28.8947 6.33124C28.1212 6.0682 27.1627 6.15125 26.433 6.49332C26.222 6.60364 26.0298 6.72581 25.8387 6.86713C25.7967 6.8977 25.7546 6.92826 25.7113 6.95975C25.1071 7.4416 24.6955 8.19176 24.5961 8.94981C24.5229 10.0485 24.8115 10.8487 25.4099 11.7668C25.4378 11.8101 25.4657 11.8534 25.4944 11.898C25.5218 11.9403 25.5491 11.9826 25.5773 12.0263C25.6033 12.0666 25.6294 12.107 25.6562 12.1486C25.7027 12.2186 25.7507 12.2877 25.8007 12.3553C25.9488 12.5557 25.9488 12.5557 25.9382 12.6875C25.8789 12.8275 25.8128 12.8657 25.6823 12.9441C25.6396 12.9699 25.5969 12.9957 25.5529 13.0223C25.5079 13.0486 25.463 13.0748 25.4167 13.1018C25.3723 13.1289 25.328 13.1559 25.2823 13.1838C24.9488 13.3822 24.9488 13.3822 24.7042 13.3822C24.627 13.2951 24.627 13.2951 24.5565 13.1729C24.5301 13.1283 24.5038 13.0836 24.4766 13.0376C24.4492 12.9894 24.4218 12.9412 24.3936 12.8915C24.3358 12.7929 24.2781 12.6943 24.2203 12.5957C24.1782 12.5232 24.1782 12.5232 24.1353 12.4492C24.0332 12.2756 23.9252 12.1065 23.8162 11.937C23.1343 10.8434 22.9286 9.53889 23.2185 8.27895C23.4487 7.52328 23.8038 6.87409 24.326 6.27971C24.3784 6.21993 24.3784 6.21993 24.4318 6.15893C25.3069 5.23196 26.5339 4.77512 27.7938 4.77445Z" fill="white"/>
<path d="M28.0278 39C34.8087 39 40.3056 33.503 40.3056 26.7221C40.3056 19.9413 34.8087 14.4443 28.0278 14.4443C21.247 14.4443 15.75 19.9413 15.75 26.7221C15.75 33.503 21.247 39 28.0278 39Z" fill="#09573A"/>
<path d="M28.0278 37.5556C34.8087 37.5556 40.3056 32.0587 40.3056 25.2778C40.3056 18.497 34.8087 13 28.0278 13C21.247 13 15.75 18.497 15.75 25.2778C15.75 32.0587 21.247 37.5556 28.0278 37.5556Z" fill="#89D6BA"/>
<path d="M28.0272 36.1109C33.6114 36.1109 38.1383 31.584 38.1383 25.9998C38.1383 20.4156 33.6114 15.8887 28.0272 15.8887C22.4429 15.8887 17.916 20.4156 17.916 25.9998C17.916 31.584 22.4429 36.1109 28.0272 36.1109Z" fill="#89D6BA"/>
<path d="M28.0272 35.3893C33.6114 35.3893 38.1383 30.8624 38.1383 25.2781C38.1383 19.6939 33.6114 15.167 28.0272 15.167C22.4429 15.167 17.916 19.6939 17.916 25.2781C17.916 30.8624 22.4429 35.3893 28.0272 35.3893Z" fill="#0D744E"/>
<path d="M27.7938 17.7744C27.8576 17.7738 27.9214 17.7731 27.9872 17.7725C29.142 17.7706 30.2218 18.1948 31.0792 18.9593C31.1161 18.9915 31.153 19.0236 31.191 19.0567C31.9162 19.7272 32.4463 20.7201 32.916 21.576C32.5646 21.8242 32.2076 22.058 31.8389 22.2802C31.7393 22.3407 31.6398 22.4012 31.5403 22.4617C31.4905 22.492 31.4407 22.5223 31.3894 22.5534C31.1589 22.6944 30.9299 22.8377 30.701 22.9811C30.5389 23.0824 30.3769 23.1837 30.2148 23.2849C30.1782 23.3077 30.1416 23.3305 30.1039 23.3541C30.0049 23.4158 29.9056 23.4772 29.8062 23.5385C29.7515 23.5724 29.6969 23.6062 29.6405 23.6411C29.5124 23.7121 29.5124 23.7121 29.4044 23.7121C29.3386 23.6283 29.3386 23.6283 29.2653 23.5108C29.2383 23.468 29.2113 23.4251 29.1835 23.381C29.155 23.335 29.1265 23.2889 29.0971 23.2415C29.0679 23.1952 29.0387 23.1489 29.0087 23.1012C28.8843 22.9037 28.761 22.7056 28.6387 22.5068C28.6073 22.4562 28.5758 22.4057 28.5434 22.3537C28.5042 22.2893 28.5042 22.2893 28.4642 22.2237C28.3289 22.0454 28.1954 21.9172 27.9727 21.8643C27.7195 21.8619 27.6041 21.8682 27.3987 22.0266C27.2573 22.2376 27.2605 22.4528 27.2974 22.6974C27.3634 22.8603 27.4551 22.9996 27.554 23.1447C27.5807 23.1858 27.6074 23.2269 27.635 23.2692C27.6914 23.3559 27.7482 23.4423 27.8055 23.5285C27.9167 23.6965 28.0245 23.8665 28.1324 24.0366C28.2132 24.1639 28.2945 24.2909 28.376 24.4178C28.566 24.7138 28.7553 25.0102 28.9446 25.3066C29.0827 25.5229 29.221 25.739 29.3598 25.9547C29.496 26.1664 29.6314 26.3785 29.766 26.5911C29.8104 26.6613 29.855 26.7314 29.8998 26.8013C30.1116 27.1334 30.2825 27.4293 30.3228 27.824C30.3272 27.861 30.3316 27.8979 30.3361 27.936C30.3683 28.4678 30.1614 28.9963 29.8387 29.4144C29.4653 29.816 28.9696 30.0763 28.4212 30.1405C27.8055 30.1629 27.3299 29.9756 26.8433 29.6092C26.6034 29.3871 26.426 29.1241 26.2709 28.8386C26.2709 28.8034 26.2709 28.7682 26.2709 28.7318C25.907 28.9399 25.5454 29.15 25.1904 29.3727C25.6726 30.2647 26.2932 30.8835 27.2757 31.2067C28.1528 31.4435 29.0999 31.3251 29.8969 30.9065C30.6749 30.447 31.2114 29.7551 31.4506 28.8887C31.7017 27.6507 31.312 26.6946 30.6368 25.6646C30.6029 25.6123 30.5689 25.56 30.5339 25.5061C30.4108 25.3167 30.2871 25.1277 30.1607 24.9403C30.1677 24.8327 30.1677 24.8327 30.2148 24.7267C30.3076 24.6494 30.3076 24.6494 30.4271 24.5792C30.47 24.5536 30.513 24.5281 30.5573 24.5017C30.6025 24.4757 30.6477 24.4498 30.6942 24.423C30.739 24.3964 30.7838 24.3698 30.8299 24.3424C31.1595 24.1484 31.1595 24.1484 31.3493 24.0859C33.3223 27.1496 33.3223 27.1496 32.9122 29.0992C32.7016 29.9397 32.3173 30.6535 31.7275 31.2951C31.6977 31.3289 31.668 31.3626 31.6373 31.3973C30.93 32.1535 29.8105 32.696 28.7738 32.7436C27.2781 32.7826 26.056 32.5106 24.9359 31.4685C24.8951 31.4289 24.8543 31.3893 24.8122 31.3485C24.7594 31.2982 24.7594 31.2982 24.7055 31.2469C24.3432 30.8749 24.0856 30.4235 23.814 29.9856C23.7083 29.8156 23.6011 29.6465 23.4939 29.4774C23.3928 29.3181 23.2922 29.1585 23.1915 28.9989C23.4358 28.7226 23.7352 28.5566 24.0525 28.3714C24.1653 28.3046 24.2781 28.2377 24.3908 28.1707C24.4451 28.1385 24.4994 28.1064 24.5553 28.0732C24.8269 27.9109 25.0924 27.7396 25.3587 27.5688C25.5745 27.4306 25.7908 27.2933 26.0076 27.1565C26.0739 27.1141 26.0739 27.1141 26.1416 27.0708C26.1833 27.0446 26.225 27.0183 26.268 26.9913C26.305 26.9678 26.3421 26.9443 26.3803 26.92C26.4879 26.8623 26.5835 26.8331 26.7031 26.8094C26.7208 26.837 26.7384 26.8647 26.7566 26.8932C26.7814 26.932 26.8061 26.9707 26.8316 27.0107C26.859 27.0535 26.8863 27.0963 26.9145 27.1404C26.9741 27.2337 27.0338 27.327 27.0936 27.4203C27.3492 27.8193 27.3492 27.8193 27.4692 28.0147C27.5162 28.0905 27.5162 28.0905 27.5642 28.1678C27.5903 28.2107 27.6164 28.2536 27.6433 28.2977C27.7848 28.4841 27.9337 28.6042 28.1584 28.6751C28.4084 28.6801 28.5632 28.5909 28.7493 28.4315C28.8451 28.2316 28.8393 28.0413 28.8101 27.824C28.7468 27.6643 28.657 27.5287 28.5602 27.3868C28.5338 27.3461 28.5074 27.3054 28.4801 27.2635C28.4229 27.1756 28.3652 27.0879 28.3071 27.0006C28.1814 26.8109 28.0591 26.6192 27.9365 26.4276C27.8403 26.2775 27.7437 26.1278 27.6469 25.9781C27.4506 25.6744 27.2549 25.3704 27.0612 25.0651C26.9089 24.8253 26.7546 24.5869 26.5982 24.3496C26.5251 24.2372 26.4521 24.1248 26.379 24.0125C26.3275 23.9354 26.3275 23.9354 26.2749 23.8568C25.9208 23.3084 25.6978 22.7293 25.8083 22.0775C25.9445 21.4819 26.2492 21.0414 26.7631 20.7034C27.3274 20.383 27.8302 20.3167 28.4589 20.4813C29.0472 20.6788 29.4862 21.0343 29.7826 21.576C29.8004 21.6465 29.8182 21.717 29.8366 21.7896C30.3714 21.4724 30.3714 21.4724 30.9171 21.1488C30.448 20.3143 29.9244 19.762 29.0262 19.3865C28.9828 19.3683 28.9394 19.35 28.8947 19.3312C28.1212 19.0682 27.1627 19.1513 26.433 19.4933C26.222 19.6036 26.0298 19.7258 25.8387 19.8671C25.7967 19.8977 25.7546 19.9283 25.7113 19.9598C25.1071 20.4416 24.6955 21.1918 24.5961 21.9498C24.5229 23.0485 24.8115 23.8487 25.4099 24.7668C25.4378 24.8101 25.4657 24.8534 25.4944 24.898C25.5218 24.9403 25.5491 24.9826 25.5773 25.0263C25.6033 25.0666 25.6294 25.107 25.6562 25.1486C25.7027 25.2186 25.7507 25.2877 25.8007 25.3553C25.9488 25.5557 25.9488 25.5557 25.9382 25.6875C25.8789 25.8275 25.8128 25.8657 25.6823 25.9441C25.6396 25.9699 25.5969 25.9957 25.5529 26.0223C25.5079 26.0486 25.463 26.0748 25.4167 26.1018C25.3723 26.1289 25.328 26.1559 25.2823 26.1838C24.9488 26.3822 24.9488 26.3822 24.7042 26.3822C24.627 26.2951 24.627 26.2951 24.5565 26.1729C24.5301 26.1283 24.5038 26.0836 24.4766 26.0376C24.4492 25.9894 24.4218 25.9412 24.3936 25.8915C24.3358 25.7929 24.2781 25.6943 24.2203 25.5957C24.1782 25.5232 24.1782 25.5232 24.1353 25.4492C24.0332 25.2756 23.9252 25.1065 23.8162 24.937C23.1343 23.8434 22.9286 22.5389 23.2185 21.2789C23.4487 20.5233 23.8038 19.8741 24.326 19.2797C24.3784 19.2199 24.3784 19.2199 24.4318 19.1589C25.3069 18.232 26.5339 17.7751 27.7938 17.7744Z" fill="white"/>
<path d="M15.1945 33.0003C20.4105 33.0003 24.6389 28.7718 24.6389 23.5558C24.6389 18.3398 20.4105 14.1113 15.1945 14.1113C9.97843 14.1113 5.75 18.3398 5.75 23.5558C5.75 28.7718 9.97843 33.0003 15.1945 33.0003Z" fill="#09573A"/>
<path d="M15.1945 31.8889C20.4105 31.8889 24.6389 27.6605 24.6389 22.4445C24.6389 17.2284 20.4105 13 15.1945 13C9.97843 13 5.75 17.2284 5.75 22.4445C5.75 27.6605 9.97843 31.8889 15.1945 31.8889Z" fill="#89D6BA"/>
<path d="M15.1938 30.7773C19.4894 30.7773 22.9716 27.295 22.9716 22.9995C22.9716 18.7039 19.4894 15.2217 15.1938 15.2217C10.8983 15.2217 7.41602 18.7039 7.41602 22.9995C7.41602 27.295 10.8983 30.7773 15.1938 30.7773Z" fill="#89D6BA"/>
<path d="M15.1938 30.2226C19.4894 30.2226 22.9716 26.7404 22.9716 22.4448C22.9716 18.1492 19.4894 14.667 15.1938 14.667C10.8983 14.667 7.41602 18.1492 7.41602 22.4448C7.41602 26.7404 10.8983 30.2226 15.1938 30.2226Z" fill="#0D744E"/>
<path d="M15.0141 16.6724C15.0632 16.6719 15.1123 16.6714 15.1629 16.6709C16.0513 16.6694 16.8818 16.9957 17.5414 17.5839C17.5697 17.6086 17.5981 17.6333 17.6274 17.6588C18.1853 18.1745 18.593 18.9383 18.9543 19.5967C18.684 19.7877 18.4094 19.9674 18.1258 20.1384C18.0492 20.1849 17.9726 20.2315 17.8961 20.278C17.8578 20.3013 17.8195 20.3246 17.78 20.3486C17.6027 20.457 17.4265 20.5672 17.2505 20.6776C17.1258 20.7555 17.0011 20.8334 16.8764 20.9112C16.8483 20.9288 16.8202 20.9463 16.7912 20.9645C16.715 21.0119 16.6386 21.0592 16.5622 21.1063C16.5201 21.1324 16.478 21.1584 16.4347 21.1853C16.3362 21.2398 16.3362 21.2398 16.2531 21.2398C16.2025 21.1754 16.2025 21.1754 16.1461 21.085C16.1253 21.052 16.1046 21.0191 16.0832 20.9852C16.0613 20.9498 16.0393 20.9143 16.0167 20.8778C15.9943 20.8422 15.9718 20.8066 15.9487 20.7699C15.853 20.618 15.7581 20.4656 15.6641 20.3127C15.6399 20.2738 15.6157 20.2349 15.5907 20.1949C15.5606 20.1454 15.5606 20.1454 15.5299 20.0949C15.4258 19.9578 15.3231 19.8592 15.1518 19.8185C14.957 19.8166 14.8682 19.8215 14.7102 19.9433C14.6014 20.1057 14.604 20.2711 14.6323 20.4593C14.6831 20.5846 14.7536 20.6917 14.8297 20.8034C14.8503 20.835 14.8708 20.8666 14.892 20.8992C14.9354 20.9659 14.9791 21.0323 15.0232 21.0986C15.1087 21.2278 15.1917 21.3586 15.2746 21.4894C15.3368 21.5874 15.3993 21.6851 15.462 21.7827C15.6082 22.0104 15.7538 22.2384 15.8994 22.4664C16.0056 22.6328 16.112 22.799 16.2188 22.965C16.3235 23.1278 16.4277 23.2909 16.5312 23.4545C16.5654 23.5084 16.5997 23.5624 16.6342 23.6162C16.7971 23.8716 16.9285 24.0992 16.9595 24.4029C16.9629 24.4313 16.9663 24.4597 16.9698 24.489C16.9946 24.8981 16.8354 25.3046 16.5872 25.6262C16.2999 25.9352 15.9186 26.1354 15.4967 26.1848C15.0232 26.202 14.6573 26.0579 14.283 25.7761C14.0985 25.6052 13.962 25.4029 13.8427 25.1834C13.8427 25.1562 13.8427 25.1291 13.8427 25.1012C13.5628 25.2612 13.2846 25.4228 13.0116 25.5941C13.3825 26.2803 13.8599 26.7563 14.6156 27.0049C15.2903 27.1871 16.0189 27.096 16.632 26.774C17.2304 26.4206 17.6431 25.8883 17.8271 25.2219C18.0202 24.2695 17.7205 23.5341 17.2011 22.7418C17.175 22.7015 17.1489 22.6613 17.122 22.6199C17.0272 22.4741 16.9321 22.3288 16.8349 22.1846C16.8403 22.1019 16.8403 22.1019 16.8764 22.0203C16.9478 21.9608 16.9478 21.9608 17.0397 21.9069C17.0728 21.8872 17.1058 21.8675 17.1399 21.8473C17.1747 21.8273 17.2094 21.8073 17.2453 21.7867C17.2797 21.7662 17.3142 21.7458 17.3496 21.7247C17.6032 21.5755 17.6032 21.5755 17.7491 21.5274C19.2668 23.8841 19.2668 23.8841 18.9514 25.3838C18.7894 26.0304 18.4937 26.5794 18.0401 27.073C18.0172 27.0989 17.9943 27.1248 17.9707 27.1516C17.4266 27.7332 16.5654 28.1505 15.768 28.1872C14.6174 28.2172 13.6774 28.0079 12.8158 27.2063C12.7844 27.1759 12.753 27.1454 12.7207 27.114C12.68 27.0754 12.68 27.0754 12.6385 27.0359C12.3598 26.7497 12.1617 26.4025 11.9528 26.0656C11.8715 25.9348 11.789 25.8048 11.7065 25.6747C11.6288 25.5521 11.5514 25.4294 11.4739 25.3066C11.6618 25.0941 11.8921 24.9664 12.1363 24.8239C12.223 24.7725 12.3098 24.7211 12.3965 24.6695C12.4382 24.6448 12.48 24.6201 12.523 24.5946C12.7319 24.4697 12.9362 24.3379 13.141 24.2066C13.307 24.1003 13.4734 23.9946 13.6401 23.8894C13.6912 23.8568 13.6912 23.8568 13.7432 23.8235C13.7753 23.8033 13.8074 23.7831 13.8404 23.7623C13.869 23.7442 13.8975 23.7261 13.9268 23.7075C14.0096 23.6631 14.0831 23.6406 14.1752 23.6224C14.1888 23.6436 14.2023 23.6649 14.2163 23.6868C14.2354 23.7167 14.2544 23.7465 14.274 23.7772C14.2951 23.8102 14.3161 23.8431 14.3377 23.877C14.3836 23.9488 14.4295 24.0206 14.4755 24.0923C14.6721 24.3992 14.6721 24.3992 14.7645 24.5495C14.8006 24.6078 14.8006 24.6078 14.8375 24.6673C14.8576 24.7003 14.8777 24.7333 14.8984 24.7673C15.0072 24.9106 15.1218 25.003 15.2946 25.0575C15.4869 25.0614 15.606 24.9928 15.7492 24.8701C15.8228 24.7164 15.8184 24.57 15.7959 24.4029C15.7472 24.28 15.6782 24.1757 15.6037 24.0665C15.5834 24.0352 15.5631 24.0039 15.5421 23.9717C15.4981 23.9041 15.4537 23.8366 15.409 23.7694C15.3123 23.6235 15.2182 23.4761 15.1239 23.3287C15.0499 23.2133 14.9756 23.0981 14.9011 22.9829C14.7502 22.7493 14.5996 22.5155 14.4506 22.2807C14.3334 22.0961 14.2147 21.9128 14.0945 21.7302C14.0383 21.6438 13.982 21.5573 13.9258 21.4709C13.8862 21.4116 13.8862 21.4116 13.8458 21.3511C13.5734 20.9293 13.4018 20.4838 13.4869 19.9824C13.5916 19.5243 13.826 19.1854 14.2213 18.9255C14.6554 18.679 15.0421 18.628 15.5258 18.7546C15.9783 18.9065 16.316 19.18 16.544 19.5967C16.5577 19.6509 16.5714 19.7051 16.5855 19.761C16.997 19.517 16.997 19.517 17.4167 19.2681C17.0559 18.6261 16.6531 18.2013 15.9622 17.9125C15.9288 17.8984 15.8954 17.8844 15.861 17.87C15.266 17.6676 14.5287 17.7315 13.9674 17.9946C13.8051 18.0795 13.6572 18.1735 13.5103 18.2822C13.4779 18.3057 13.4455 18.3292 13.4122 18.3534C12.9475 18.7241 12.6309 19.3011 12.5544 19.8842C12.4981 20.7294 12.7201 21.3449 13.1804 22.0511C13.2018 22.0844 13.2233 22.1177 13.2454 22.1521C13.2664 22.1846 13.2875 22.2172 13.3091 22.2507C13.3292 22.2818 13.3492 22.3129 13.3699 22.3449C13.4056 22.3987 13.4425 22.4519 13.481 22.5039C13.5949 22.658 13.5949 22.658 13.5868 22.7594C13.5411 22.8671 13.4903 22.8965 13.39 22.9568C13.3571 22.9766 13.3242 22.9965 13.2904 23.0169C13.2558 23.0371 13.2212 23.0573 13.1856 23.0781C13.1515 23.0989 13.1174 23.1197 13.0823 23.1411C12.8257 23.2937 12.8257 23.2937 12.6375 23.2937C12.5782 23.2268 12.5782 23.2268 12.5239 23.1328C12.5036 23.0985 12.4834 23.0641 12.4625 23.0287C12.4414 22.9916 12.4203 22.9546 12.3986 22.9163C12.3542 22.8405 12.3098 22.7646 12.2653 22.6888C12.233 22.633 12.233 22.633 12.2 22.5761C12.1214 22.4425 12.0383 22.3125 11.9544 22.1821C11.4299 21.3409 11.2717 20.3374 11.4947 19.3682C11.6717 18.7869 11.9449 18.2875 12.3466 17.8303C12.3869 17.7843 12.3869 17.7843 12.428 17.7374C13.1012 17.0244 14.045 16.6729 15.0141 16.6724Z" fill="white"/>
<path d="M26.1945 33.0003C31.4105 33.0003 35.6389 28.7718 35.6389 23.5558C35.6389 18.3398 31.4105 14.1113 26.1945 14.1113C20.9784 14.1113 16.75 18.3398 16.75 23.5558C16.75 28.7718 20.9784 33.0003 26.1945 33.0003Z" fill="#09573A"/>
<path d="M26.1945 31.8889C31.4105 31.8889 35.6389 27.6605 35.6389 22.4445C35.6389 17.2284 31.4105 13 26.1945 13C20.9784 13 16.75 17.2284 16.75 22.4445C16.75 27.6605 20.9784 31.8889 26.1945 31.8889Z" fill="#89D6BA"/>
<path d="M26.1938 30.7773C30.4894 30.7773 33.9716 27.295 33.9716 22.9995C33.9716 18.7039 30.4894 15.2217 26.1938 15.2217C21.8983 15.2217 18.416 18.7039 18.416 22.9995C18.416 27.295 21.8983 30.7773 26.1938 30.7773Z" fill="#89D6BA"/>
<path d="M26.1938 30.2226C30.4894 30.2226 33.9716 26.7404 33.9716 22.4448C33.9716 18.1492 30.4894 14.667 26.1938 14.667C21.8983 14.667 18.416 18.1492 18.416 22.4448C18.416 26.7404 21.8983 30.2226 26.1938 30.2226Z" fill="#0D744E"/>
<path d="M26.0141 16.6724C26.0632 16.6719 26.1123 16.6714 26.1629 16.6709C27.0513 16.6694 27.8818 16.9957 28.5414 17.5839C28.5697 17.6086 28.5981 17.6333 28.6274 17.6588C29.1853 18.1745 29.593 18.9383 29.9543 19.5967C29.684 19.7877 29.4094 19.9674 29.1258 20.1384C29.0492 20.1849 28.9726 20.2315 28.8961 20.278C28.8578 20.3013 28.8195 20.3246 28.78 20.3486C28.6027 20.457 28.4265 20.5672 28.2505 20.6776C28.1258 20.7555 28.0011 20.8334 27.8764 20.9112C27.8483 20.9288 27.8202 20.9463 27.7912 20.9645C27.715 21.0119 27.6386 21.0592 27.5622 21.1063C27.5201 21.1324 27.478 21.1584 27.4347 21.1853C27.3362 21.2398 27.3362 21.2398 27.2531 21.2398C27.2025 21.1754 27.2025 21.1754 27.1461 21.085C27.1253 21.052 27.1046 21.0191 27.0832 20.9852C27.0613 20.9498 27.0393 20.9143 27.0167 20.8778C26.9943 20.8422 26.9718 20.8066 26.9487 20.7699C26.853 20.618 26.7581 20.4656 26.6641 20.3127C26.6399 20.2738 26.6157 20.2349 26.5907 20.1949C26.5606 20.1454 26.5606 20.1454 26.5299 20.0949C26.4258 19.9578 26.3231 19.8592 26.1518 19.8185C25.957 19.8166 25.8682 19.8215 25.7102 19.9433C25.6014 20.1057 25.604 20.2711 25.6323 20.4593C25.6831 20.5846 25.7536 20.6917 25.8297 20.8034C25.8503 20.835 25.8708 20.8666 25.892 20.8992C25.9354 20.9659 25.9791 21.0323 26.0232 21.0986C26.1087 21.2278 26.1917 21.3586 26.2746 21.4894C26.3368 21.5874 26.3993 21.6851 26.462 21.7827C26.6082 22.0104 26.7538 22.2384 26.8994 22.4664C27.0056 22.6328 27.112 22.799 27.2188 22.965C27.3235 23.1278 27.4277 23.2909 27.5312 23.4545C27.5654 23.5084 27.5997 23.5624 27.6342 23.6162C27.7971 23.8716 27.9285 24.0992 27.9595 24.4029C27.9629 24.4313 27.9663 24.4597 27.9698 24.489C27.9946 24.8981 27.8354 25.3046 27.5872 25.6262C27.2999 25.9352 26.9186 26.1354 26.4967 26.1848C26.0232 26.202 25.6573 26.0579 25.283 25.7761C25.0985 25.6052 24.962 25.4029 24.8427 25.1834C24.8427 25.1562 24.8427 25.1291 24.8427 25.1012C24.5628 25.2612 24.2846 25.4228 24.0116 25.5941C24.3825 26.2803 24.8599 26.7563 25.6156 27.0049C26.2903 27.1871 27.0189 27.096 27.632 26.774C28.2304 26.4206 28.6431 25.8883 28.8271 25.2219C29.0202 24.2695 28.7205 23.5341 28.2011 22.7418C28.175 22.7015 28.1489 22.6613 28.122 22.6199C28.0272 22.4741 27.9321 22.3288 27.8349 22.1846C27.8403 22.1019 27.8403 22.1019 27.8764 22.0203C27.9478 21.9608 27.9478 21.9608 28.0397 21.9069C28.0728 21.8872 28.1058 21.8675 28.1399 21.8473C28.1747 21.8273 28.2094 21.8073 28.2453 21.7867C28.2797 21.7662 28.3142 21.7458 28.3496 21.7247C28.6032 21.5755 28.6032 21.5755 28.7491 21.5274C30.2668 23.8841 30.2668 23.8841 29.9514 25.3838C29.7894 26.0304 29.4937 26.5794 29.0401 27.073C29.0172 27.0989 28.9943 27.1248 28.9707 27.1516C28.4266 27.7332 27.5654 28.1505 26.768 28.1872C25.6174 28.2172 24.6774 28.0079 23.8158 27.2063C23.7844 27.1759 23.753 27.1454 23.7207 27.114C23.68 27.0754 23.68 27.0754 23.6385 27.0359C23.3598 26.7497 23.1617 26.4025 22.9528 26.0656C22.8715 25.9348 22.789 25.8048 22.7065 25.6747C22.6288 25.5521 22.5514 25.4294 22.4739 25.3066C22.6618 25.0941 22.8921 24.9664 23.1363 24.8239C23.223 24.7725 23.3098 24.7211 23.3965 24.6695C23.4382 24.6448 23.48 24.6201 23.523 24.5946C23.7319 24.4697 23.9362 24.3379 24.141 24.2066C24.307 24.1003 24.4734 23.9946 24.6401 23.8894C24.6912 23.8568 24.6912 23.8568 24.7432 23.8235C24.7753 23.8033 24.8074 23.7831 24.8404 23.7623C24.869 23.7442 24.8975 23.7261 24.9268 23.7075C25.0096 23.6631 25.0831 23.6406 25.1752 23.6224C25.1888 23.6436 25.2023 23.6649 25.2163 23.6868C25.2354 23.7167 25.2544 23.7465 25.274 23.7772C25.2951 23.8102 25.3161 23.8431 25.3377 23.877C25.3836 23.9488 25.4295 24.0206 25.4755 24.0923C25.6721 24.3992 25.6721 24.3992 25.7645 24.5495C25.8006 24.6078 25.8006 24.6078 25.8375 24.6673C25.8576 24.7003 25.8777 24.7333 25.8984 24.7673C26.0072 24.9106 26.1218 25.003 26.2946 25.0575C26.4869 25.0614 26.606 24.9928 26.7492 24.8701C26.8228 24.7164 26.8184 24.57 26.7959 24.4029C26.7472 24.28 26.6782 24.1757 26.6037 24.0665C26.5834 24.0352 26.5631 24.0039 26.5421 23.9717C26.4981 23.9041 26.4537 23.8366 26.409 23.7694C26.3123 23.6235 26.2182 23.4761 26.1239 23.3287C26.0499 23.2133 25.9756 23.0981 25.9011 22.9829C25.7502 22.7493 25.5996 22.5155 25.4506 22.2807C25.3334 22.0961 25.2147 21.9128 25.0945 21.7302C25.0383 21.6438 24.982 21.5573 24.9258 21.4709C24.8862 21.4116 24.8862 21.4116 24.8458 21.3511C24.5734 20.9293 24.4018 20.4838 24.4869 19.9824C24.5916 19.5243 24.826 19.1854 25.2213 18.9255C25.6554 18.679 26.0421 18.628 26.5258 18.7546C26.9783 18.9065 27.316 19.18 27.544 19.5967C27.5577 19.6509 27.5714 19.7051 27.5855 19.761C27.997 19.517 27.997 19.517 28.4167 19.2681C28.0559 18.6261 27.6531 18.2013 26.9622 17.9125C26.9288 17.8984 26.8954 17.8844 26.861 17.87C26.266 17.6676 25.5287 17.7315 24.9674 17.9946C24.8051 18.0795 24.6572 18.1735 24.5103 18.2822C24.4779 18.3057 24.4455 18.3292 24.4122 18.3534C23.9475 18.7241 23.6309 19.3011 23.5544 19.8842C23.4981 20.7294 23.7201 21.3449 24.1804 22.0511C24.2018 22.0844 24.2233 22.1177 24.2454 22.1521C24.2664 22.1846 24.2875 22.2172 24.3091 22.2507C24.3292 22.2818 24.3492 22.3129 24.3699 22.3449C24.4056 22.3987 24.4425 22.4519 24.481 22.5039C24.5949 22.658 24.5949 22.658 24.5868 22.7594C24.5411 22.8671 24.4903 22.8965 24.39 22.9568C24.3571 22.9766 24.3242 22.9965 24.2904 23.0169C24.2558 23.0371 24.2212 23.0573 24.1856 23.0781C24.1515 23.0989 24.1174 23.1197 24.0823 23.1411C23.8257 23.2937 23.8257 23.2937 23.6375 23.2937C23.5782 23.2268 23.5782 23.2268 23.5239 23.1328C23.5036 23.0985 23.4834 23.0641 23.4625 23.0287C23.4414 22.9916 23.4203 22.9546 23.3986 22.9163C23.3542 22.8405 23.3098 22.7646 23.2653 22.6888C23.233 22.633 23.233 22.633 23.2 22.5761C23.1214 22.4425 23.0383 22.3125 22.9544 22.1821C22.4299 21.3409 22.2717 20.3374 22.4947 19.3682C22.6717 18.7869 22.9449 18.2875 23.3466 17.8303C23.3869 17.7843 23.3869 17.7843 23.428 17.7374C24.1012 17.0244 25.045 16.6729 26.0141 16.6724Z" fill="white"/>
<path d="M20.1945 23.0003C25.4105 23.0003 29.6389 18.7718 29.6389 13.5558C29.6389 8.33976 25.4105 4.11133 20.1945 4.11133C14.9784 4.11133 10.75 8.33976 10.75 13.5558C10.75 18.7718 14.9784 23.0003 20.1945 23.0003Z" fill="#09573A"/>
<path d="M20.1945 21.8889C25.4105 21.8889 29.6389 17.6605 29.6389 12.4445C29.6389 7.22843 25.4105 3 20.1945 3C14.9784 3 10.75 7.22843 10.75 12.4445C10.75 17.6605 14.9784 21.8889 20.1945 21.8889Z" fill="#89D6BA"/>
<path d="M20.1938 20.7773C24.4894 20.7773 27.9716 17.295 27.9716 12.9995C27.9716 8.70392 24.4894 5.22168 20.1938 5.22168C15.8983 5.22168 12.416 8.70392 12.416 12.9995C12.416 17.295 15.8983 20.7773 20.1938 20.7773Z" fill="#89D6BA"/>
<path d="M20.1938 20.2226C24.4894 20.2226 27.9716 16.7404 27.9716 12.4448C27.9716 8.14923 24.4894 4.66699 20.1938 4.66699C15.8983 4.66699 12.416 8.14923 12.416 12.4448C12.416 16.7404 15.8983 20.2226 20.1938 20.2226Z" fill="#0D744E"/>
<path d="M20.0141 6.67243C20.0632 6.67192 20.1123 6.67142 20.1629 6.6709C21.0513 6.66944 21.8818 6.99574 22.5414 7.58385C22.5697 7.60858 22.5981 7.63331 22.6274 7.65879C23.1853 8.17453 23.593 8.9383 23.9543 9.59669C23.684 9.78766 23.4094 9.96743 23.1258 10.1384C23.0492 10.1849 22.9726 10.2315 22.8961 10.278C22.8578 10.3013 22.8195 10.3246 22.78 10.3486C22.6027 10.457 22.4265 10.5672 22.2505 10.6776C22.1258 10.7555 22.0011 10.8334 21.8764 10.9112C21.8483 10.9288 21.8202 10.9463 21.7912 10.9645C21.715 11.0119 21.6386 11.0592 21.5622 11.1063C21.5201 11.1324 21.478 11.1584 21.4347 11.1853C21.3362 11.2398 21.3362 11.2398 21.2531 11.2398C21.2025 11.1754 21.2025 11.1754 21.1461 11.085C21.1253 11.052 21.1046 11.0191 21.0832 10.9852C21.0613 10.9498 21.0393 10.9143 21.0167 10.8778C20.9943 10.8422 20.9718 10.8066 20.9487 10.7699C20.853 10.618 20.7581 10.4656 20.6641 10.3127C20.6399 10.2738 20.6157 10.2349 20.5907 10.1949C20.5606 10.1454 20.5606 10.1454 20.5299 10.0949C20.4258 9.9578 20.3231 9.8592 20.1518 9.81845C19.957 9.81665 19.8682 9.82149 19.7102 9.94329C19.6014 10.1057 19.604 10.2711 19.6323 10.4593C19.6831 10.5846 19.7536 10.6917 19.8297 10.8034C19.8503 10.835 19.8708 10.8666 19.892 10.8992C19.9354 10.9659 19.9791 11.0323 20.0232 11.0986C20.1087 11.2278 20.1917 11.3586 20.2746 11.4894C20.3368 11.5874 20.3993 11.6851 20.462 11.7827C20.6082 12.0104 20.7538 12.2384 20.8994 12.4664C21.0056 12.6328 21.112 12.799 21.2188 12.965C21.3235 13.1278 21.4277 13.2909 21.5312 13.4545C21.5654 13.5084 21.5997 13.5624 21.6342 13.6162C21.7971 13.8716 21.9285 14.0992 21.9595 14.4029C21.9629 14.4313 21.9663 14.4597 21.9698 14.489C21.9946 14.8981 21.8354 15.3046 21.5872 15.6262C21.2999 15.9352 20.9186 16.1354 20.4967 16.1848C20.0232 16.202 19.6573 16.0579 19.283 15.7761C19.0985 15.6052 18.962 15.4029 18.8427 15.1834C18.8427 15.1562 18.8427 15.1291 18.8427 15.1012C18.5628 15.2612 18.2846 15.4228 18.0116 15.5941C18.3825 16.2803 18.8599 16.7563 19.6156 17.0049C20.2903 17.1871 21.0189 17.096 21.632 16.774C22.2304 16.4206 22.6431 15.8883 22.8271 15.2219C23.0202 14.2695 22.7205 13.5341 22.2011 12.7418C22.175 12.7015 22.1489 12.6613 22.122 12.6199C22.0272 12.4741 21.9321 12.3288 21.8349 12.1846C21.8403 12.1019 21.8403 12.1019 21.8764 12.0203C21.9478 11.9608 21.9478 11.9608 22.0397 11.9069C22.0728 11.8872 22.1058 11.8675 22.1399 11.8473C22.1747 11.8273 22.2094 11.8073 22.2453 11.7867C22.2797 11.7662 22.3142 11.7458 22.3496 11.7247C22.6032 11.5755 22.6032 11.5755 22.7491 11.5274C24.2668 13.8841 24.2668 13.8841 23.9514 15.3838C23.7894 16.0304 23.4937 16.5794 23.0401 17.073C23.0172 17.0989 22.9943 17.1248 22.9707 17.1516C22.4266 17.7332 21.5654 18.1505 20.768 18.1872C19.6174 18.2172 18.6774 18.0079 17.8158 17.2063C17.7844 17.1759 17.753 17.1454 17.7207 17.114C17.68 17.0754 17.68 17.0754 17.6385 17.0359C17.3598 16.7497 17.1617 16.4025 16.9528 16.0656C16.8715 15.9348 16.789 15.8048 16.7065 15.6747C16.6288 15.5521 16.5514 15.4294 16.4739 15.3066C16.6618 15.0941 16.8921 14.9664 17.1363 14.8239C17.223 14.7725 17.3098 14.7211 17.3965 14.6695C17.4382 14.6448 17.48 14.6201 17.523 14.5946C17.7319 14.4697 17.9362 14.3379 18.141 14.2066C18.307 14.1003 18.4734 13.9946 18.6401 13.8894C18.6912 13.8568 18.6912 13.8568 18.7432 13.8235C18.7753 13.8033 18.8074 13.7831 18.8404 13.7623C18.869 13.7442 18.8975 13.7261 18.9268 13.7075C19.0096 13.6631 19.0831 13.6406 19.1752 13.6224C19.1888 13.6436 19.2023 13.6649 19.2163 13.6868C19.2354 13.7167 19.2544 13.7465 19.274 13.7772C19.2951 13.8102 19.3161 13.8431 19.3377 13.877C19.3836 13.9488 19.4295 14.0206 19.4755 14.0923C19.6721 14.3992 19.6721 14.3992 19.7645 14.5495C19.8006 14.6078 19.8006 14.6078 19.8375 14.6673C19.8576 14.7003 19.8777 14.7333 19.8984 14.7673C20.0072 14.9106 20.1218 15.003 20.2946 15.0575C20.4869 15.0614 20.606 14.9928 20.7492 14.8701C20.8228 14.7164 20.8184 14.57 20.7959 14.4029C20.7472 14.28 20.6782 14.1757 20.6037 14.0665C20.5834 14.0352 20.5631 14.0039 20.5421 13.9717C20.4981 13.9041 20.4537 13.8366 20.409 13.7694C20.3123 13.6235 20.2182 13.4761 20.1239 13.3287C20.0499 13.2133 19.9756 13.0981 19.9011 12.9829C19.7502 12.7493 19.5996 12.5155 19.4506 12.2807C19.3334 12.0961 19.2147 11.9128 19.0945 11.7302C19.0383 11.6438 18.982 11.5573 18.9258 11.4709C18.8862 11.4116 18.8862 11.4116 18.8458 11.3511C18.5734 10.9293 18.4018 10.4838 18.4869 9.98245C18.5916 9.52429 18.826 9.18544 19.2213 8.92548C19.6554 8.67903 20.0421 8.628 20.5258 8.75459C20.9783 8.90651 21.316 9.18001 21.544 9.59669C21.5577 9.65092 21.5714 9.70514 21.5855 9.76101C21.997 9.517 21.997 9.517 22.4167 9.26807C22.0559 8.62613 21.6531 8.20132 20.9622 7.91248C20.9288 7.89845 20.8954 7.88442 20.861 7.86996C20.266 7.66762 19.5287 7.73151 18.9674 7.99464C18.8051 8.0795 18.6572 8.17348 18.5103 8.28219C18.4779 8.3057 18.4455 8.32921 18.4122 8.35343C17.9475 8.72408 17.6309 9.30113 17.5544 9.88424C17.4981 10.7294 17.7201 11.3449 18.1804 12.0511C18.2018 12.0844 18.2233 12.1177 18.2454 12.1521C18.2664 12.1846 18.2875 12.2172 18.3091 12.2507C18.3292 12.2818 18.3492 12.3129 18.3699 12.3449C18.4056 12.3987 18.4425 12.4519 18.481 12.5039C18.5949 12.658 18.5949 12.658 18.5868 12.7594C18.5411 12.8671 18.4903 12.8965 18.39 12.9568C18.3571 12.9766 18.3242 12.9965 18.2904 13.0169C18.2558 13.0371 18.2212 13.0573 18.1856 13.0781C18.1515 13.0989 18.1174 13.1197 18.0823 13.1411C17.8257 13.2937 17.8257 13.2937 17.6375 13.2937C17.5782 13.2268 17.5782 13.2268 17.5239 13.1328C17.5036 13.0985 17.4834 13.0641 17.4625 13.0287C17.4414 12.9916 17.4203 12.9546 17.3986 12.9163C17.3542 12.8405 17.3098 12.7646 17.2653 12.6888C17.233 12.633 17.233 12.633 17.2 12.5761C17.1214 12.4425 17.0383 12.3125 16.9544 12.1821C16.4299 11.3409 16.2717 10.3374 16.4947 9.3682C16.6717 8.78691 16.9449 8.28754 17.3466 7.83032C17.3869 7.78433 17.3869 7.78433 17.428 7.73742C18.1012 7.02436 19.045 6.67294 20.0141 6.67243Z" fill="white"/>
</g>
<defs>
<clipPath id="clip0_354_5077">
<rect width="39.5" height="39.5" fill="white" transform="translate(0.75)"/>
</clipPath>
</defs>
</svg>
