<svg width="41" height="40" viewBox="0 0 41 40" fill="none" xmlns="http://www.w3.org/2000/svg">
<g clip-path="url(#clip0_354_4922)">
<path d="M20.5004 39.4999C30.8021 39.4999 39.1532 31.1488 39.1532 20.8471C39.1532 10.5455 30.8021 2.19434 20.5004 2.19434C10.1988 2.19434 1.84766 10.5455 1.84766 20.8471C1.84766 31.1488 10.1988 39.4999 20.5004 39.4999Z" fill="#09573A"/>
<path d="M20.5004 37.3056C30.8021 37.3056 39.1532 28.9544 39.1532 18.6528C39.1532 8.35113 30.8021 0 20.5004 0C10.1988 0 1.84766 8.35113 1.84766 18.6528C1.84766 28.9544 10.1988 37.3056 20.5004 37.3056Z" fill="#89D6BA"/>
<path d="M20.4998 34.0142C28.9835 34.0142 35.8609 27.1368 35.8609 18.6531C35.8609 10.1694 28.9835 3.29199 20.4998 3.29199C12.0161 3.29199 5.13867 10.1694 5.13867 18.6531C5.13867 27.1368 12.0161 34.0142 20.4998 34.0142Z" fill="#0D744E"/>
<path d="M20.1448 7.25302C20.2418 7.25203 20.3388 7.25103 20.4387 7.25001C22.1932 7.24713 23.8335 7.89155 25.1361 9.05308C25.1922 9.10192 25.2482 9.15076 25.306 9.20108C26.4078 10.2197 27.213 11.7281 27.9267 13.0284C27.3928 13.4056 26.8504 13.7606 26.2903 14.0983C26.139 14.1902 25.9878 14.2821 25.8366 14.374C25.761 14.42 25.6854 14.466 25.6074 14.5134C25.2572 14.7275 24.9093 14.9452 24.5616 15.1632C24.3154 15.3171 24.0691 15.4708 23.8229 15.6246C23.7673 15.6593 23.7118 15.694 23.6545 15.7297C23.504 15.8236 23.3531 15.9168 23.2022 16.0099C23.1191 16.0614 23.0361 16.1128 22.9505 16.1659C22.7559 16.2736 22.7559 16.2736 22.5917 16.2736C22.4918 16.1463 22.4918 16.1463 22.3804 15.9678C22.3395 15.9027 22.2985 15.8377 22.2562 15.7707C22.2129 15.7007 22.1696 15.6307 22.1249 15.5587C22.0806 15.4883 22.0362 15.418 21.9906 15.3455C21.8015 15.0455 21.6142 14.7445 21.4286 14.4425C21.3807 14.3657 21.3329 14.289 21.2836 14.2099C21.2241 14.1121 21.2241 14.1121 21.1634 14.0124C20.9578 13.7416 20.755 13.5469 20.4167 13.4664C20.0321 13.4628 19.8567 13.4724 19.5446 13.713C19.3298 14.0336 19.3348 14.3604 19.3908 14.7321C19.491 14.9795 19.6303 15.1911 19.7806 15.4116C19.8212 15.4741 19.8618 15.5365 19.9036 15.6008C19.9893 15.7325 20.0757 15.8638 20.1627 15.9947C20.3316 16.2499 20.4954 16.5082 20.6593 16.7666C20.7821 16.96 20.9056 17.1529 21.0294 17.3457C21.318 17.7954 21.6056 18.2457 21.8932 18.6961C22.103 19.0246 22.3132 19.3529 22.5241 19.6807C22.7308 20.0023 22.9366 20.3245 23.1411 20.6475C23.2086 20.7541 23.2763 20.8606 23.3444 20.9669C23.6661 21.4713 23.9258 21.9209 23.987 22.5206C23.9937 22.5767 24.0004 22.6329 24.0072 22.6908C24.0562 23.4987 23.7419 24.3015 23.2515 24.9367C22.6843 25.5469 21.9312 25.9423 21.098 26.0399C20.1627 26.0738 19.4402 25.7893 18.7008 25.2327C18.3364 24.8953 18.0669 24.4957 17.8313 24.062C17.8313 24.0085 17.8313 23.955 17.8313 23.8998C17.2784 24.2158 16.7291 24.5351 16.1898 24.8733C16.9224 26.2285 17.8651 27.1686 19.3577 27.6596C20.6903 28.0194 22.1292 27.8395 23.34 27.2036C24.5219 26.5055 25.3371 25.4543 25.7004 24.1381C26.0818 22.2572 25.4898 20.8047 24.4641 19.2399C24.4125 19.1605 24.3609 19.0811 24.3078 18.9992C24.1207 18.7114 23.9328 18.4243 23.7408 18.1396C23.7514 17.9761 23.7514 17.9761 23.8229 17.8151C23.9639 17.6976 23.9639 17.6976 24.1454 17.591C24.2107 17.5522 24.276 17.5133 24.3432 17.4733C24.4119 17.4338 24.4806 17.3943 24.5513 17.3536C24.6193 17.3132 24.6874 17.2728 24.7575 17.2312C25.2582 16.9365 25.2582 16.9365 25.5465 16.8415C28.5439 21.4959 28.5439 21.4959 27.9209 24.4579C27.601 25.7349 27.017 26.8192 26.121 27.794C26.0758 27.8452 26.0307 27.8965 25.9841 27.9493C24.9095 29.098 23.2087 29.9222 21.6338 29.9946C19.3614 30.0539 17.5048 29.6406 15.8031 28.0574C15.7411 27.9972 15.6791 27.9371 15.6152 27.8751C15.5349 27.7987 15.5349 27.7987 15.453 27.7208C14.9026 27.1555 14.5114 26.4698 14.0987 25.8045C13.9381 25.5462 13.7753 25.2893 13.6123 25.0325C13.4588 24.7904 13.3059 24.5479 13.153 24.3054C13.5241 23.8858 13.9789 23.6336 14.461 23.3522C14.6324 23.2506 14.8037 23.149 14.975 23.0473C15.0574 22.9984 15.1399 22.9496 15.2249 22.8992C15.6375 22.6526 16.0409 22.3924 16.4454 22.1329C16.7732 21.923 17.1019 21.7143 17.4312 21.5065C17.532 21.4421 17.532 21.4421 17.6348 21.3763C17.6982 21.3364 17.7615 21.2966 17.8268 21.2555C17.8831 21.2198 17.9394 21.184 17.9974 21.1472C18.161 21.0595 18.3061 21.0151 18.4879 20.9791C18.5147 21.0211 18.5416 21.0632 18.5692 21.1065C18.6068 21.1654 18.6444 21.2243 18.6832 21.2849C18.7247 21.35 18.7662 21.415 18.809 21.482C18.8996 21.6238 18.9903 21.7656 19.0811 21.9072C19.4694 22.5134 19.4694 22.5134 19.6517 22.8102C19.7231 22.9254 19.7231 22.9254 19.796 23.0429C19.8357 23.108 19.8754 23.1732 19.9162 23.2403C20.1312 23.5234 20.3575 23.7059 20.6988 23.8136C21.0786 23.8212 21.3138 23.6856 21.5966 23.4434C21.742 23.1399 21.7332 22.8507 21.6889 22.5206C21.5927 22.278 21.4563 22.0719 21.3093 21.8563C21.2691 21.7945 21.229 21.7327 21.1876 21.669C21.1007 21.5354 21.013 21.4023 20.9248 21.2696C20.7338 20.9814 20.5479 20.6902 20.3616 20.3991C20.2155 20.1711 20.0687 19.9436 19.9217 19.7162C19.6235 19.2549 19.3262 18.793 19.0318 18.3292C18.8005 17.9648 18.566 17.6027 18.3286 17.2421C18.2175 17.0714 18.1065 16.9007 17.9955 16.73C17.9172 16.6129 17.9172 16.6129 17.8374 16.4934C17.2994 15.6603 16.9606 14.7805 17.1285 13.7903C17.3354 12.8854 17.7982 12.2162 18.579 11.7028C19.4363 11.2161 20.2001 11.1153 21.1554 11.3653C22.049 11.6653 22.716 12.2055 23.1663 13.0284C23.1933 13.1355 23.2204 13.2426 23.2483 13.3529C24.0609 12.871 24.0609 12.871 24.8899 12.3794C24.1773 11.1116 23.3818 10.2726 22.0172 9.70212C21.9513 9.6744 21.8854 9.64669 21.8175 9.61814C20.6422 9.21852 19.1861 9.34469 18.0775 9.86438C17.7569 10.032 17.4649 10.2176 17.1747 10.4323C17.1108 10.4787 17.0469 10.5252 16.981 10.573C16.0632 11.305 15.4379 12.4447 15.2869 13.5963C15.1756 15.2655 15.6142 16.4812 16.5232 17.8759C16.5656 17.9417 16.608 18.0075 16.6516 18.0753C16.6931 18.1396 16.7347 18.2039 16.7775 18.2702C16.817 18.3315 16.8566 18.3928 16.8974 18.456C16.9681 18.5624 17.0409 18.6674 17.1169 18.7701C17.342 19.0745 17.342 19.0745 17.3258 19.2748C17.2357 19.4874 17.1353 19.5454 16.9371 19.6646C16.8722 19.7038 16.8073 19.743 16.7404 19.7834C16.6721 19.8233 16.6038 19.8631 16.5335 19.9042C16.4661 19.9453 16.3988 19.9864 16.3294 20.0287C15.8227 20.3301 15.8227 20.3301 15.4511 20.3301C15.3338 20.1979 15.3338 20.1979 15.2267 20.0122C15.1866 19.9444 15.1466 19.8766 15.1053 19.8067C15.0637 19.7334 15.0221 19.6602 14.9791 19.5847C14.8915 19.4349 14.8037 19.2851 14.7159 19.1353C14.652 19.0252 14.652 19.0252 14.5868 18.9128C14.4317 18.6489 14.2676 18.3921 14.102 18.1345C13.066 16.4732 12.7535 14.4913 13.194 12.5771C13.5436 11.4291 14.0831 10.4428 14.8766 9.53986C14.9561 9.44903 14.9561 9.44903 15.0372 9.35637C16.3667 7.94808 18.2309 7.25404 20.1448 7.25302Z" fill="white"/>
</g>
<defs>
<clipPath id="clip0_354_4922">
<rect width="39.5" height="39.5" fill="white" transform="translate(0.75)"/>
</clipPath>
</defs>
</svg>
