<svg width="41" height="40" viewBox="0 0 41 40" fill="none" xmlns="http://www.w3.org/2000/svg">
<g clip-path="url(#clip0_354_5035)">
<path d="M13.0278 39.5C19.8087 39.5 25.3056 34.003 25.3056 27.2221C25.3056 20.4413 19.8087 14.9443 13.0278 14.9443C6.24696 14.9443 0.75 20.4413 0.75 27.2221C0.75 34.003 6.24696 39.5 13.0278 39.5Z" fill="#09573A"/>
<path d="M13.0278 38.0556C19.8087 38.0556 25.3056 32.5587 25.3056 25.7778C25.3056 18.997 19.8087 13.5 13.0278 13.5C6.24696 13.5 0.75 18.997 0.75 25.7778C0.75 32.5587 6.24696 38.0556 13.0278 38.0556Z" fill="#89D6BA"/>
<path d="M13.0272 36.6109C18.6114 36.6109 23.1383 32.084 23.1383 26.4998C23.1383 20.9156 18.6114 16.3887 13.0272 16.3887C7.44293 16.3887 2.91602 20.9156 2.91602 26.4998C2.91602 32.084 7.44293 36.6109 13.0272 36.6109Z" fill="#89D6BA"/>
<path d="M13.0272 35.8893C18.6114 35.8893 23.1383 31.3624 23.1383 25.7781C23.1383 20.1939 18.6114 15.667 13.0272 15.667C7.44293 15.667 2.91602 20.1939 2.91602 25.7781C2.91602 31.3624 7.44293 35.8893 13.0272 35.8893Z" fill="#0D744E"/>
<path d="M12.7938 18.2744C12.8576 18.2738 12.9214 18.2731 12.9872 18.2725C14.142 18.2706 15.2218 18.6948 16.0792 19.4593C16.1161 19.4915 16.153 19.5236 16.191 19.5567C16.9162 20.2272 17.4463 21.2201 17.916 22.076C17.5646 22.3242 17.2076 22.558 16.8389 22.7802C16.7393 22.8407 16.6398 22.9012 16.5403 22.9617C16.4905 22.992 16.4407 23.0223 16.3894 23.0534C16.1589 23.1944 15.9299 23.3377 15.701 23.4811C15.5389 23.5824 15.3769 23.6837 15.2148 23.7849C15.1782 23.8077 15.1416 23.8305 15.1039 23.8541C15.0049 23.9158 14.9056 23.9772 14.8062 24.0385C14.7515 24.0724 14.6969 24.1062 14.6405 24.1411C14.5124 24.2121 14.5124 24.2121 14.4044 24.2121C14.3386 24.1283 14.3386 24.1283 14.2653 24.0108C14.2383 23.968 14.2113 23.9251 14.1835 23.881C14.155 23.835 14.1265 23.7889 14.0971 23.7415C14.0679 23.6952 14.0387 23.6489 14.0087 23.6012C13.8843 23.4037 13.761 23.2056 13.6387 23.0068C13.6073 22.9562 13.5758 22.9057 13.5434 22.8537C13.5042 22.7893 13.5042 22.7893 13.4642 22.7237C13.3289 22.5454 13.1954 22.4172 12.9727 22.3643C12.7195 22.3619 12.6041 22.3682 12.3987 22.5266C12.2573 22.7376 12.2605 22.9528 12.2974 23.1974C12.3634 23.3603 12.4551 23.4996 12.554 23.6447C12.5807 23.6858 12.6074 23.7269 12.635 23.7692C12.6914 23.8559 12.7482 23.9423 12.8055 24.0285C12.9167 24.1965 13.0245 24.3665 13.1324 24.5366C13.2132 24.6639 13.2945 24.7909 13.376 24.9178C13.566 25.2138 13.7553 25.5102 13.9446 25.8066C14.0827 26.0229 14.221 26.239 14.3598 26.4547C14.496 26.6664 14.6314 26.8785 14.766 27.0911C14.8104 27.1613 14.855 27.2314 14.8998 27.3013C15.1116 27.6334 15.2825 27.9293 15.3228 28.324C15.3272 28.361 15.3316 28.3979 15.3361 28.436C15.3683 28.9678 15.1614 29.4963 14.8387 29.9144C14.4653 30.316 13.9696 30.5763 13.4212 30.6405C12.8055 30.6629 12.3299 30.4756 11.8433 30.1092C11.6034 29.8871 11.426 29.6241 11.2709 29.3386C11.2709 29.3034 11.2709 29.2682 11.2709 29.2318C10.907 29.4399 10.5454 29.65 10.1904 29.8727C10.6726 30.7647 11.2932 31.3835 12.2757 31.7067C13.1528 31.9435 14.0999 31.8251 14.8969 31.4065C15.6749 30.947 16.2114 30.2551 16.4506 29.3887C16.7017 28.1507 16.312 27.1946 15.6368 26.1646C15.6029 26.1123 15.5689 26.06 15.5339 26.0061C15.4108 25.8167 15.2871 25.6277 15.1607 25.4403C15.1677 25.3327 15.1677 25.3327 15.2148 25.2267C15.3076 25.1494 15.3076 25.1494 15.4271 25.0792C15.47 25.0536 15.513 25.0281 15.5573 25.0017C15.6025 24.9757 15.6477 24.9498 15.6942 24.923C15.739 24.8964 15.7838 24.8698 15.8299 24.8424C16.1595 24.6484 16.1595 24.6484 16.3493 24.5859C18.3223 27.6496 18.3223 27.6496 17.9122 29.5992C17.7016 30.4397 17.3173 31.1535 16.7275 31.7951C16.6977 31.8289 16.668 31.8626 16.6373 31.8973C15.93 32.6535 14.8105 33.196 13.7738 33.2436C12.2781 33.2826 11.056 33.0106 9.93592 31.9685C9.89511 31.9289 9.8543 31.8893 9.81225 31.8485C9.75939 31.7982 9.75939 31.7982 9.70547 31.7469C9.34319 31.3749 9.08564 30.9235 8.814 30.4856C8.7083 30.3156 8.60113 30.1465 8.49389 29.9774C8.39281 29.8181 8.29216 29.6585 8.1915 29.4989C8.43577 29.2226 8.73517 29.0566 9.05252 28.8714C9.16533 28.8046 9.27809 28.7377 9.39081 28.6707C9.44509 28.6385 9.49937 28.6064 9.55529 28.5732C9.82688 28.4109 10.0924 28.2396 10.3587 28.0688C10.5745 27.9306 10.7908 27.7933 11.0076 27.6565C11.0739 27.6141 11.0739 27.6141 11.1416 27.5708C11.1833 27.5446 11.225 27.5183 11.268 27.4913C11.305 27.4678 11.3421 27.4443 11.3803 27.42C11.4879 27.3623 11.5835 27.3331 11.7031 27.3094C11.7208 27.337 11.7384 27.3647 11.7566 27.3932C11.7814 27.432 11.8061 27.4707 11.8316 27.5107C11.859 27.5535 11.8863 27.5963 11.9145 27.6404C11.9741 27.7337 12.0338 27.827 12.0936 27.9203C12.3492 28.3193 12.3492 28.3193 12.4692 28.5147C12.5162 28.5905 12.5162 28.5905 12.5642 28.6678C12.5903 28.7107 12.6164 28.7536 12.6433 28.7977C12.7848 28.9841 12.9337 29.1042 13.1584 29.1751C13.4084 29.1801 13.5632 29.0909 13.7493 28.9315C13.8451 28.7316 13.8393 28.5413 13.8101 28.324C13.7468 28.1643 13.657 28.0287 13.5602 27.8868C13.5338 27.8461 13.5074 27.8054 13.4801 27.7635C13.4229 27.6756 13.3652 27.5879 13.3071 27.5006C13.1814 27.3109 13.0591 27.1192 12.9365 26.9276C12.8403 26.7775 12.7437 26.6278 12.6469 26.4781C12.4506 26.1744 12.2549 25.8704 12.0612 25.5651C11.9089 25.3253 11.7546 25.0869 11.5982 24.8496C11.5251 24.7372 11.4521 24.6248 11.379 24.5125C11.3275 24.4354 11.3275 24.4354 11.2749 24.3568C10.9208 23.8084 10.6978 23.2293 10.8083 22.5775C10.9445 21.9819 11.2492 21.5414 11.7631 21.2034C12.3274 20.883 12.8302 20.8167 13.4589 20.9813C14.0472 21.1788 14.4862 21.5343 14.7826 22.076C14.8004 22.1465 14.8182 22.217 14.8366 22.2896C15.3714 21.9724 15.3714 21.9724 15.9171 21.6488C15.448 20.8143 14.9244 20.262 14.0262 19.8865C13.9828 19.8683 13.9394 19.85 13.8947 19.8312C13.1212 19.5682 12.1627 19.6513 11.433 19.9933C11.222 20.1036 11.0298 20.2258 10.8387 20.3671C10.7967 20.3977 10.7546 20.4283 10.7113 20.4598C10.1071 20.9416 9.69554 21.6918 9.59615 22.4498C9.52289 23.5485 9.81154 24.3487 10.4099 25.2668C10.4378 25.3101 10.4657 25.3534 10.4944 25.398C10.5218 25.4403 10.5491 25.4826 10.5773 25.5263C10.6033 25.5666 10.6294 25.607 10.6562 25.6486C10.7027 25.7186 10.7507 25.7877 10.8007 25.8553C10.9488 26.0557 10.9488 26.0557 10.9382 26.1875C10.8789 26.3275 10.8128 26.3657 10.6823 26.4441C10.6396 26.4699 10.5969 26.4957 10.5529 26.5223C10.5079 26.5486 10.463 26.5748 10.4167 26.6018C10.3723 26.6289 10.328 26.6559 10.2823 26.6838C9.94883 26.8822 9.94883 26.8822 9.7042 26.8822C9.62701 26.7951 9.62701 26.7951 9.55647 26.6729C9.53012 26.6283 9.50376 26.5836 9.47661 26.5376C9.4492 26.4894 9.42179 26.4412 9.39356 26.3915C9.33584 26.2929 9.27809 26.1943 9.2203 26.0957C9.17824 26.0232 9.17824 26.0232 9.13533 25.9492C9.03324 25.7756 8.92516 25.6065 8.81616 25.437C8.13428 24.3434 7.92859 23.0389 8.21851 21.7789C8.44866 21.0233 8.80377 20.3741 9.32602 19.7797C9.37836 19.7199 9.37836 19.7199 9.43175 19.6589C10.3069 18.732 11.5339 18.2751 12.7938 18.2744Z" fill="white"/>
<path d="M13.0278 26.5C19.8087 26.5 25.3056 21.003 25.3056 14.2221C25.3056 7.4413 19.8087 1.94434 13.0278 1.94434C6.24696 1.94434 0.75 7.4413 0.75 14.2221C0.75 21.003 6.24696 26.5 13.0278 26.5Z" fill="#09573A"/>
<path d="M13.0278 25.0556C19.8087 25.0556 25.3056 19.5587 25.3056 12.7778C25.3056 5.99696 19.8087 0.5 13.0278 0.5C6.24696 0.5 0.75 5.99696 0.75 12.7778C0.75 19.5587 6.24696 25.0556 13.0278 25.0556Z" fill="#89D6BA"/>
<path d="M13.0272 23.6109C18.6114 23.6109 23.1383 19.084 23.1383 13.4998C23.1383 7.91558 18.6114 3.38867 13.0272 3.38867C7.44293 3.38867 2.91602 7.91558 2.91602 13.4998C2.91602 19.084 7.44293 23.6109 13.0272 23.6109Z" fill="#89D6BA"/>
<path d="M13.0272 22.8893C18.6114 22.8893 23.1383 18.3624 23.1383 12.7781C23.1383 7.1939 18.6114 2.66699 13.0272 2.66699C7.44293 2.66699 2.91602 7.1939 2.91602 12.7781C2.91602 18.3624 7.44293 22.8893 13.0272 22.8893Z" fill="#0D744E"/>
<path d="M12.7938 5.27445C12.8576 5.2738 12.9214 5.27314 12.9872 5.27247C14.142 5.27057 15.2218 5.69475 16.0792 6.4593C16.1161 6.49145 16.153 6.5236 16.191 6.55672C16.9162 7.22718 17.4463 8.22008 17.916 9.07599C17.5646 9.32425 17.2076 9.55795 16.8389 9.78023C16.7393 9.84069 16.6398 9.90118 16.5403 9.96171C16.4905 9.99199 16.4407 10.0223 16.3894 10.0534C16.1589 10.1944 15.9299 10.3377 15.701 10.4811C15.5389 10.5824 15.3769 10.6837 15.2148 10.7849C15.1782 10.8077 15.1416 10.8305 15.1039 10.8541C15.0049 10.9158 14.9056 10.9772 14.8062 11.0385C14.7515 11.0724 14.6969 11.1062 14.6405 11.1411C14.5124 11.2121 14.5124 11.2121 14.4044 11.2121C14.3386 11.1283 14.3386 11.1283 14.2653 11.0108C14.2383 10.968 14.2113 10.9251 14.1835 10.881C14.155 10.835 14.1265 10.7889 14.0971 10.7415C14.0679 10.6952 14.0387 10.6489 14.0087 10.6012C13.8843 10.4037 13.761 10.2056 13.6387 10.0068C13.6073 9.95624 13.5758 9.90572 13.5434 9.85366C13.5042 9.78933 13.5042 9.78933 13.4642 9.7237C13.3289 9.54544 13.1954 9.41725 12.9727 9.36428C12.7195 9.36193 12.6041 9.36823 12.3987 9.52657C12.2573 9.73764 12.2605 9.95276 12.2974 10.1974C12.3634 10.3603 12.4551 10.4996 12.554 10.6447C12.5807 10.6858 12.6074 10.7269 12.635 10.7692C12.6914 10.8559 12.7482 10.9423 12.8055 11.0285C12.9167 11.1965 13.0245 11.3665 13.1324 11.5366C13.2132 11.6639 13.2945 11.7909 13.376 11.9178C13.566 12.2138 13.7553 12.5102 13.9446 12.8066C14.0827 13.0229 14.221 13.239 14.3598 13.4547C14.496 13.6664 14.6314 13.8785 14.766 14.0911C14.8104 14.1613 14.855 14.2314 14.8998 14.3013C15.1116 14.6334 15.2825 14.9293 15.3228 15.324C15.3272 15.361 15.3316 15.3979 15.3361 15.436C15.3683 15.9678 15.1614 16.4963 14.8387 16.9144C14.4653 17.316 13.9696 17.5763 13.4212 17.6405C12.8055 17.6629 12.3299 17.4756 11.8433 17.1092C11.6034 16.8871 11.426 16.6241 11.2709 16.3386C11.2709 16.3034 11.2709 16.2682 11.2709 16.2318C10.907 16.4399 10.5454 16.65 10.1904 16.8727C10.6726 17.7647 11.2932 18.3835 12.2757 18.7067C13.1528 18.9435 14.0999 18.8251 14.8969 18.4065C15.6749 17.947 16.2114 17.2551 16.4506 16.3887C16.7017 15.1507 16.312 14.1946 15.6368 13.1646C15.6029 13.1123 15.5689 13.06 15.5339 13.0061C15.4108 12.8167 15.2871 12.6277 15.1607 12.4403C15.1677 12.3327 15.1677 12.3327 15.2148 12.2267C15.3076 12.1494 15.3076 12.1494 15.4271 12.0792C15.47 12.0536 15.513 12.0281 15.5573 12.0017C15.6025 11.9757 15.6477 11.9498 15.6942 11.923C15.739 11.8964 15.7838 11.8698 15.8299 11.8424C16.1595 11.6484 16.1595 11.6484 16.3493 11.5859C18.3223 14.6496 18.3223 14.6496 17.9122 16.5992C17.7016 17.4397 17.3173 18.1535 16.7275 18.7951C16.6977 18.8289 16.668 18.8626 16.6373 18.8973C15.93 19.6535 14.8105 20.196 13.7738 20.2436C12.2781 20.2826 11.056 20.0106 9.93592 18.9685C9.89511 18.9289 9.8543 18.8893 9.81225 18.8485C9.75939 18.7982 9.75939 18.7982 9.70547 18.7469C9.34319 18.3749 9.08564 17.9235 8.814 17.4856C8.7083 17.3156 8.60113 17.1465 8.49389 16.9774C8.39281 16.8181 8.29216 16.6585 8.1915 16.4989C8.43577 16.2226 8.73517 16.0566 9.05252 15.8714C9.16533 15.8046 9.27809 15.7377 9.39081 15.6707C9.44509 15.6385 9.49937 15.6064 9.55529 15.5732C9.82688 15.4109 10.0924 15.2396 10.3587 15.0688C10.5745 14.9306 10.7908 14.7933 11.0076 14.6565C11.0739 14.6141 11.0739 14.6141 11.1416 14.5708C11.1833 14.5446 11.225 14.5183 11.268 14.4913C11.305 14.4678 11.3421 14.4443 11.3803 14.42C11.4879 14.3623 11.5835 14.3331 11.7031 14.3094C11.7208 14.337 11.7384 14.3647 11.7566 14.3932C11.7814 14.432 11.8061 14.4707 11.8316 14.5107C11.859 14.5535 11.8863 14.5963 11.9145 14.6404C11.9741 14.7337 12.0338 14.827 12.0936 14.9203C12.3492 15.3193 12.3492 15.3193 12.4692 15.5147C12.5162 15.5905 12.5162 15.5905 12.5642 15.6678C12.5903 15.7107 12.6164 15.7536 12.6433 15.7977C12.7848 15.9841 12.9337 16.1042 13.1584 16.1751C13.4084 16.1801 13.5632 16.0909 13.7493 15.9315C13.8451 15.7316 13.8393 15.5413 13.8101 15.324C13.7468 15.1643 13.657 15.0287 13.5602 14.8868C13.5338 14.8461 13.5074 14.8054 13.4801 14.7635C13.4229 14.6756 13.3652 14.5879 13.3071 14.5006C13.1814 14.3109 13.0591 14.1192 12.9365 13.9276C12.8403 13.7775 12.7437 13.6278 12.6469 13.4781C12.4506 13.1744 12.2549 12.8704 12.0612 12.5651C11.9089 12.3253 11.7546 12.0869 11.5982 11.8496C11.5251 11.7372 11.4521 11.6248 11.379 11.5125C11.3275 11.4354 11.3275 11.4354 11.2749 11.3568C10.9208 10.8084 10.6978 10.2293 10.8083 9.57747C10.9445 8.98187 11.2492 8.54137 11.7631 8.20342C12.3274 7.88303 12.8302 7.81669 13.4589 7.98126C14.0472 8.17875 14.4862 8.5343 14.7826 9.07599C14.8004 9.14648 14.8182 9.21698 14.8366 9.2896C15.3714 8.97239 15.3714 8.97239 15.9171 8.64878C15.448 7.81426 14.9244 7.26201 14.0262 6.88652C13.9828 6.86828 13.9394 6.85003 13.8947 6.83124C13.1212 6.5682 12.1627 6.65125 11.433 6.99332C11.222 7.10364 11.0298 7.22581 10.8387 7.36713C10.7967 7.3977 10.7546 7.42826 10.7113 7.45975C10.1071 7.9416 9.69554 8.69176 9.59615 9.44981C9.52289 10.5485 9.81154 11.3487 10.4099 12.2668C10.4378 12.3101 10.4657 12.3534 10.4944 12.398C10.5218 12.4403 10.5491 12.4826 10.5773 12.5263C10.6033 12.5666 10.6294 12.607 10.6562 12.6486C10.7027 12.7186 10.7507 12.7877 10.8007 12.8553C10.9488 13.0557 10.9488 13.0557 10.9382 13.1875C10.8789 13.3275 10.8128 13.3657 10.6823 13.4441C10.6396 13.4699 10.5969 13.4957 10.5529 13.5223C10.5079 13.5486 10.463 13.5748 10.4167 13.6018C10.3723 13.6289 10.328 13.6559 10.2823 13.6838C9.94883 13.8822 9.94883 13.8822 9.7042 13.8822C9.62701 13.7951 9.62701 13.7951 9.55647 13.6729C9.53012 13.6283 9.50376 13.5836 9.47661 13.5376C9.4492 13.4894 9.42179 13.4412 9.39356 13.3915C9.33584 13.2929 9.27809 13.1943 9.2203 13.0957C9.17824 13.0232 9.17824 13.0232 9.13533 12.9492C9.03324 12.7756 8.92516 12.6065 8.81616 12.437C8.13428 11.3434 7.92859 10.0389 8.21851 8.77895C8.44866 8.02328 8.80377 7.37409 9.32602 6.77971C9.37836 6.71993 9.37836 6.71993 9.43175 6.65893C10.3069 5.73196 11.5339 5.27512 12.7938 5.27445Z" fill="white"/>
<path d="M28.0278 26.5C34.8087 26.5 40.3056 21.003 40.3056 14.2221C40.3056 7.4413 34.8087 1.94434 28.0278 1.94434C21.247 1.94434 15.75 7.4413 15.75 14.2221C15.75 21.003 21.247 26.5 28.0278 26.5Z" fill="#09573A"/>
<path d="M28.0278 25.0556C34.8087 25.0556 40.3056 19.5587 40.3056 12.7778C40.3056 5.99696 34.8087 0.5 28.0278 0.5C21.247 0.5 15.75 5.99696 15.75 12.7778C15.75 19.5587 21.247 25.0556 28.0278 25.0556Z" fill="#89D6BA"/>
<path d="M28.0272 23.6109C33.6114 23.6109 38.1383 19.084 38.1383 13.4998C38.1383 7.91558 33.6114 3.38867 28.0272 3.38867C22.4429 3.38867 17.916 7.91558 17.916 13.4998C17.916 19.084 22.4429 23.6109 28.0272 23.6109Z" fill="#89D6BA"/>
<path d="M28.0272 22.8893C33.6114 22.8893 38.1383 18.3624 38.1383 12.7781C38.1383 7.1939 33.6114 2.66699 28.0272 2.66699C22.4429 2.66699 17.916 7.1939 17.916 12.7781C17.916 18.3624 22.4429 22.8893 28.0272 22.8893Z" fill="#0D744E"/>
<path d="M27.7938 5.27445C27.8576 5.2738 27.9214 5.27314 27.9872 5.27247C29.142 5.27057 30.2218 5.69475 31.0792 6.4593C31.1161 6.49145 31.153 6.5236 31.191 6.55672C31.9162 7.22718 32.4463 8.22008 32.916 9.07599C32.5646 9.32425 32.2076 9.55795 31.8389 9.78023C31.7393 9.84069 31.6398 9.90118 31.5403 9.96171C31.4905 9.99199 31.4407 10.0223 31.3894 10.0534C31.1589 10.1944 30.9299 10.3377 30.701 10.4811C30.5389 10.5824 30.3769 10.6837 30.2148 10.7849C30.1782 10.8077 30.1416 10.8305 30.1039 10.8541C30.0049 10.9158 29.9056 10.9772 29.8062 11.0385C29.7515 11.0724 29.6969 11.1062 29.6405 11.1411C29.5124 11.2121 29.5124 11.2121 29.4044 11.2121C29.3386 11.1283 29.3386 11.1283 29.2653 11.0108C29.2383 10.968 29.2113 10.9251 29.1835 10.881C29.155 10.835 29.1265 10.7889 29.0971 10.7415C29.0679 10.6952 29.0387 10.6489 29.0087 10.6012C28.8843 10.4037 28.761 10.2056 28.6387 10.0068C28.6073 9.95624 28.5758 9.90572 28.5434 9.85366C28.5042 9.78933 28.5042 9.78933 28.4642 9.7237C28.3289 9.54544 28.1954 9.41725 27.9727 9.36428C27.7195 9.36193 27.6041 9.36823 27.3987 9.52657C27.2573 9.73764 27.2605 9.95276 27.2974 10.1974C27.3634 10.3603 27.4551 10.4996 27.554 10.6447C27.5807 10.6858 27.6074 10.7269 27.635 10.7692C27.6914 10.8559 27.7482 10.9423 27.8055 11.0285C27.9167 11.1965 28.0245 11.3665 28.1324 11.5366C28.2132 11.6639 28.2945 11.7909 28.376 11.9178C28.566 12.2138 28.7553 12.5102 28.9446 12.8066C29.0827 13.0229 29.221 13.239 29.3598 13.4547C29.496 13.6664 29.6314 13.8785 29.766 14.0911C29.8104 14.1613 29.855 14.2314 29.8998 14.3013C30.1116 14.6334 30.2825 14.9293 30.3228 15.324C30.3272 15.361 30.3316 15.3979 30.3361 15.436C30.3683 15.9678 30.1614 16.4963 29.8387 16.9144C29.4653 17.316 28.9696 17.5763 28.4212 17.6405C27.8055 17.6629 27.3299 17.4756 26.8433 17.1092C26.6034 16.8871 26.426 16.6241 26.2709 16.3386C26.2709 16.3034 26.2709 16.2682 26.2709 16.2318C25.907 16.4399 25.5454 16.65 25.1904 16.8727C25.6726 17.7647 26.2932 18.3835 27.2757 18.7067C28.1528 18.9435 29.0999 18.8251 29.8969 18.4065C30.6749 17.947 31.2114 17.2551 31.4506 16.3887C31.7017 15.1507 31.312 14.1946 30.6368 13.1646C30.6029 13.1123 30.5689 13.06 30.5339 13.0061C30.4108 12.8167 30.2871 12.6277 30.1607 12.4403C30.1677 12.3327 30.1677 12.3327 30.2148 12.2267C30.3076 12.1494 30.3076 12.1494 30.4271 12.0792C30.47 12.0536 30.513 12.0281 30.5573 12.0017C30.6025 11.9757 30.6477 11.9498 30.6942 11.923C30.739 11.8964 30.7838 11.8698 30.8299 11.8424C31.1595 11.6484 31.1595 11.6484 31.3493 11.5859C33.3223 14.6496 33.3223 14.6496 32.9122 16.5992C32.7016 17.4397 32.3173 18.1535 31.7275 18.7951C31.6977 18.8289 31.668 18.8626 31.6373 18.8973C30.93 19.6535 29.8105 20.196 28.7738 20.2436C27.2781 20.2826 26.056 20.0106 24.9359 18.9685C24.8951 18.9289 24.8543 18.8893 24.8122 18.8485C24.7594 18.7982 24.7594 18.7982 24.7055 18.7469C24.3432 18.3749 24.0856 17.9235 23.814 17.4856C23.7083 17.3156 23.6011 17.1465 23.4939 16.9774C23.3928 16.8181 23.2922 16.6585 23.1915 16.4989C23.4358 16.2226 23.7352 16.0566 24.0525 15.8714C24.1653 15.8046 24.2781 15.7377 24.3908 15.6707C24.4451 15.6385 24.4994 15.6064 24.5553 15.5732C24.8269 15.4109 25.0924 15.2396 25.3587 15.0688C25.5745 14.9306 25.7908 14.7933 26.0076 14.6565C26.0739 14.6141 26.0739 14.6141 26.1416 14.5708C26.1833 14.5446 26.225 14.5183 26.268 14.4913C26.305 14.4678 26.3421 14.4443 26.3803 14.42C26.4879 14.3623 26.5835 14.3331 26.7031 14.3094C26.7208 14.337 26.7384 14.3647 26.7566 14.3932C26.7814 14.432 26.8061 14.4707 26.8316 14.5107C26.859 14.5535 26.8863 14.5963 26.9145 14.6404C26.9741 14.7337 27.0338 14.827 27.0936 14.9203C27.3492 15.3193 27.3492 15.3193 27.4692 15.5147C27.5162 15.5905 27.5162 15.5905 27.5642 15.6678C27.5903 15.7107 27.6164 15.7536 27.6433 15.7977C27.7848 15.9841 27.9337 16.1042 28.1584 16.1751C28.4084 16.1801 28.5632 16.0909 28.7493 15.9315C28.8451 15.7316 28.8393 15.5413 28.8101 15.324C28.7468 15.1643 28.657 15.0287 28.5602 14.8868C28.5338 14.8461 28.5074 14.8054 28.4801 14.7635C28.4229 14.6756 28.3652 14.5879 28.3071 14.5006C28.1814 14.3109 28.0591 14.1192 27.9365 13.9276C27.8403 13.7775 27.7437 13.6278 27.6469 13.4781C27.4506 13.1744 27.2549 12.8704 27.0612 12.5651C26.9089 12.3253 26.7546 12.0869 26.5982 11.8496C26.5251 11.7372 26.4521 11.6248 26.379 11.5125C26.3275 11.4354 26.3275 11.4354 26.2749 11.3568C25.9208 10.8084 25.6978 10.2293 25.8083 9.57747C25.9445 8.98187 26.2492 8.54137 26.7631 8.20342C27.3274 7.88303 27.8302 7.81669 28.4589 7.98126C29.0472 8.17875 29.4862 8.5343 29.7826 9.07599C29.8004 9.14648 29.8182 9.21698 29.8366 9.2896C30.3714 8.97239 30.3714 8.97239 30.9171 8.64878C30.448 7.81426 29.9244 7.26201 29.0262 6.88652C28.9828 6.86828 28.9394 6.85003 28.8947 6.83124C28.1212 6.5682 27.1627 6.65125 26.433 6.99332C26.222 7.10364 26.0298 7.22581 25.8387 7.36713C25.7967 7.3977 25.7546 7.42826 25.7113 7.45975C25.1071 7.9416 24.6955 8.69176 24.5961 9.44981C24.5229 10.5485 24.8115 11.3487 25.4099 12.2668C25.4378 12.3101 25.4657 12.3534 25.4944 12.398C25.5218 12.4403 25.5491 12.4826 25.5773 12.5263C25.6033 12.5666 25.6294 12.607 25.6562 12.6486C25.7027 12.7186 25.7507 12.7877 25.8007 12.8553C25.9488 13.0557 25.9488 13.0557 25.9382 13.1875C25.8789 13.3275 25.8128 13.3657 25.6823 13.4441C25.6396 13.4699 25.5969 13.4957 25.5529 13.5223C25.5079 13.5486 25.463 13.5748 25.4167 13.6018C25.3723 13.6289 25.328 13.6559 25.2823 13.6838C24.9488 13.8822 24.9488 13.8822 24.7042 13.8822C24.627 13.7951 24.627 13.7951 24.5565 13.6729C24.5301 13.6283 24.5038 13.5836 24.4766 13.5376C24.4492 13.4894 24.4218 13.4412 24.3936 13.3915C24.3358 13.2929 24.2781 13.1943 24.2203 13.0957C24.1782 13.0232 24.1782 13.0232 24.1353 12.9492C24.0332 12.7756 23.9252 12.6065 23.8162 12.437C23.1343 11.3434 22.9286 10.0389 23.2185 8.77895C23.4487 8.02328 23.8038 7.37409 24.326 6.77971C24.3784 6.71993 24.3784 6.71993 24.4318 6.65893C25.3069 5.73196 26.5339 5.27512 27.7938 5.27445Z" fill="white"/>
<path d="M28.0278 39.5C34.8087 39.5 40.3056 34.003 40.3056 27.2221C40.3056 20.4413 34.8087 14.9443 28.0278 14.9443C21.247 14.9443 15.75 20.4413 15.75 27.2221C15.75 34.003 21.247 39.5 28.0278 39.5Z" fill="#09573A"/>
<path d="M28.0278 38.0556C34.8087 38.0556 40.3056 32.5587 40.3056 25.7778C40.3056 18.997 34.8087 13.5 28.0278 13.5C21.247 13.5 15.75 18.997 15.75 25.7778C15.75 32.5587 21.247 38.0556 28.0278 38.0556Z" fill="#89D6BA"/>
<path d="M28.0272 36.6109C33.6114 36.6109 38.1383 32.084 38.1383 26.4998C38.1383 20.9156 33.6114 16.3887 28.0272 16.3887C22.4429 16.3887 17.916 20.9156 17.916 26.4998C17.916 32.084 22.4429 36.6109 28.0272 36.6109Z" fill="#89D6BA"/>
<path d="M28.0272 35.8893C33.6114 35.8893 38.1383 31.3624 38.1383 25.7781C38.1383 20.1939 33.6114 15.667 28.0272 15.667C22.4429 15.667 17.916 20.1939 17.916 25.7781C17.916 31.3624 22.4429 35.8893 28.0272 35.8893Z" fill="#0D744E"/>
<path d="M27.7938 18.2744C27.8576 18.2738 27.9214 18.2731 27.9872 18.2725C29.142 18.2706 30.2218 18.6948 31.0792 19.4593C31.1161 19.4915 31.153 19.5236 31.191 19.5567C31.9162 20.2272 32.4463 21.2201 32.916 22.076C32.5646 22.3242 32.2076 22.558 31.8389 22.7802C31.7393 22.8407 31.6398 22.9012 31.5403 22.9617C31.4905 22.992 31.4407 23.0223 31.3894 23.0534C31.1589 23.1944 30.9299 23.3377 30.701 23.4811C30.5389 23.5824 30.3769 23.6837 30.2148 23.7849C30.1782 23.8077 30.1416 23.8305 30.1039 23.8541C30.0049 23.9158 29.9056 23.9772 29.8062 24.0385C29.7515 24.0724 29.6969 24.1062 29.6405 24.1411C29.5124 24.2121 29.5124 24.2121 29.4044 24.2121C29.3386 24.1283 29.3386 24.1283 29.2653 24.0108C29.2383 23.968 29.2113 23.9251 29.1835 23.881C29.155 23.835 29.1265 23.7889 29.0971 23.7415C29.0679 23.6952 29.0387 23.6489 29.0087 23.6012C28.8843 23.4037 28.761 23.2056 28.6387 23.0068C28.6073 22.9562 28.5758 22.9057 28.5434 22.8537C28.5042 22.7893 28.5042 22.7893 28.4642 22.7237C28.3289 22.5454 28.1954 22.4172 27.9727 22.3643C27.7195 22.3619 27.6041 22.3682 27.3987 22.5266C27.2573 22.7376 27.2605 22.9528 27.2974 23.1974C27.3634 23.3603 27.4551 23.4996 27.554 23.6447C27.5807 23.6858 27.6074 23.7269 27.635 23.7692C27.6914 23.8559 27.7482 23.9423 27.8055 24.0285C27.9167 24.1965 28.0245 24.3665 28.1324 24.5366C28.2132 24.6639 28.2945 24.7909 28.376 24.9178C28.566 25.2138 28.7553 25.5102 28.9446 25.8066C29.0827 26.0229 29.221 26.239 29.3598 26.4547C29.496 26.6664 29.6314 26.8785 29.766 27.0911C29.8104 27.1613 29.855 27.2314 29.8998 27.3013C30.1116 27.6334 30.2825 27.9293 30.3228 28.324C30.3272 28.361 30.3316 28.3979 30.3361 28.436C30.3683 28.9678 30.1614 29.4963 29.8387 29.9144C29.4653 30.316 28.9696 30.5763 28.4212 30.6405C27.8055 30.6629 27.3299 30.4756 26.8433 30.1092C26.6034 29.8871 26.426 29.6241 26.2709 29.3386C26.2709 29.3034 26.2709 29.2682 26.2709 29.2318C25.907 29.4399 25.5454 29.65 25.1904 29.8727C25.6726 30.7647 26.2932 31.3835 27.2757 31.7067C28.1528 31.9435 29.0999 31.8251 29.8969 31.4065C30.6749 30.947 31.2114 30.2551 31.4506 29.3887C31.7017 28.1507 31.312 27.1946 30.6368 26.1646C30.6029 26.1123 30.5689 26.06 30.5339 26.0061C30.4108 25.8167 30.2871 25.6277 30.1607 25.4403C30.1677 25.3327 30.1677 25.3327 30.2148 25.2267C30.3076 25.1494 30.3076 25.1494 30.4271 25.0792C30.47 25.0536 30.513 25.0281 30.5573 25.0017C30.6025 24.9757 30.6477 24.9498 30.6942 24.923C30.739 24.8964 30.7838 24.8698 30.8299 24.8424C31.1595 24.6484 31.1595 24.6484 31.3493 24.5859C33.3223 27.6496 33.3223 27.6496 32.9122 29.5992C32.7016 30.4397 32.3173 31.1535 31.7275 31.7951C31.6977 31.8289 31.668 31.8626 31.6373 31.8973C30.93 32.6535 29.8105 33.196 28.7738 33.2436C27.2781 33.2826 26.056 33.0106 24.9359 31.9685C24.8951 31.9289 24.8543 31.8893 24.8122 31.8485C24.7594 31.7982 24.7594 31.7982 24.7055 31.7469C24.3432 31.3749 24.0856 30.9235 23.814 30.4856C23.7083 30.3156 23.6011 30.1465 23.4939 29.9774C23.3928 29.8181 23.2922 29.6585 23.1915 29.4989C23.4358 29.2226 23.7352 29.0566 24.0525 28.8714C24.1653 28.8046 24.2781 28.7377 24.3908 28.6707C24.4451 28.6385 24.4994 28.6064 24.5553 28.5732C24.8269 28.4109 25.0924 28.2396 25.3587 28.0688C25.5745 27.9306 25.7908 27.7933 26.0076 27.6565C26.0739 27.6141 26.0739 27.6141 26.1416 27.5708C26.1833 27.5446 26.225 27.5183 26.268 27.4913C26.305 27.4678 26.3421 27.4443 26.3803 27.42C26.4879 27.3623 26.5835 27.3331 26.7031 27.3094C26.7208 27.337 26.7384 27.3647 26.7566 27.3932C26.7814 27.432 26.8061 27.4707 26.8316 27.5107C26.859 27.5535 26.8863 27.5963 26.9145 27.6404C26.9741 27.7337 27.0338 27.827 27.0936 27.9203C27.3492 28.3193 27.3492 28.3193 27.4692 28.5147C27.5162 28.5905 27.5162 28.5905 27.5642 28.6678C27.5903 28.7107 27.6164 28.7536 27.6433 28.7977C27.7848 28.9841 27.9337 29.1042 28.1584 29.1751C28.4084 29.1801 28.5632 29.0909 28.7493 28.9315C28.8451 28.7316 28.8393 28.5413 28.8101 28.324C28.7468 28.1643 28.657 28.0287 28.5602 27.8868C28.5338 27.8461 28.5074 27.8054 28.4801 27.7635C28.4229 27.6756 28.3652 27.5879 28.3071 27.5006C28.1814 27.3109 28.0591 27.1192 27.9365 26.9276C27.8403 26.7775 27.7437 26.6278 27.6469 26.4781C27.4506 26.1744 27.2549 25.8704 27.0612 25.5651C26.9089 25.3253 26.7546 25.0869 26.5982 24.8496C26.5251 24.7372 26.4521 24.6248 26.379 24.5125C26.3275 24.4354 26.3275 24.4354 26.2749 24.3568C25.9208 23.8084 25.6978 23.2293 25.8083 22.5775C25.9445 21.9819 26.2492 21.5414 26.7631 21.2034C27.3274 20.883 27.8302 20.8167 28.4589 20.9813C29.0472 21.1788 29.4862 21.5343 29.7826 22.076C29.8004 22.1465 29.8182 22.217 29.8366 22.2896C30.3714 21.9724 30.3714 21.9724 30.9171 21.6488C30.448 20.8143 29.9244 20.262 29.0262 19.8865C28.9828 19.8683 28.9394 19.85 28.8947 19.8312C28.1212 19.5682 27.1627 19.6513 26.433 19.9933C26.222 20.1036 26.0298 20.2258 25.8387 20.3671C25.7967 20.3977 25.7546 20.4283 25.7113 20.4598C25.1071 20.9416 24.6955 21.6918 24.5961 22.4498C24.5229 23.5485 24.8115 24.3487 25.4099 25.2668C25.4378 25.3101 25.4657 25.3534 25.4944 25.398C25.5218 25.4403 25.5491 25.4826 25.5773 25.5263C25.6033 25.5666 25.6294 25.607 25.6562 25.6486C25.7027 25.7186 25.7507 25.7877 25.8007 25.8553C25.9488 26.0557 25.9488 26.0557 25.9382 26.1875C25.8789 26.3275 25.8128 26.3657 25.6823 26.4441C25.6396 26.4699 25.5969 26.4957 25.5529 26.5223C25.5079 26.5486 25.463 26.5748 25.4167 26.6018C25.3723 26.6289 25.328 26.6559 25.2823 26.6838C24.9488 26.8822 24.9488 26.8822 24.7042 26.8822C24.627 26.7951 24.627 26.7951 24.5565 26.6729C24.5301 26.6283 24.5038 26.5836 24.4766 26.5376C24.4492 26.4894 24.4218 26.4412 24.3936 26.3915C24.3358 26.2929 24.2781 26.1943 24.2203 26.0957C24.1782 26.0232 24.1782 26.0232 24.1353 25.9492C24.0332 25.7756 23.9252 25.6065 23.8162 25.437C23.1343 24.3434 22.9286 23.0389 23.2185 21.7789C23.4487 21.0233 23.8038 20.3741 24.326 19.7797C24.3784 19.7199 24.3784 19.7199 24.4318 19.6589C25.3069 18.732 26.5339 18.2751 27.7938 18.2744Z" fill="white"/>
<path d="M15.1945 30.5003C20.4105 30.5003 24.6389 26.2718 24.6389 21.0558C24.6389 15.8398 20.4105 11.6113 15.1945 11.6113C9.97843 11.6113 5.75 15.8398 5.75 21.0558C5.75 26.2718 9.97843 30.5003 15.1945 30.5003Z" fill="#09573A"/>
<path d="M15.1945 29.3889C20.4105 29.3889 24.6389 25.1605 24.6389 19.9445C24.6389 14.7284 20.4105 10.5 15.1945 10.5C9.97843 10.5 5.75 14.7284 5.75 19.9445C5.75 25.1605 9.97843 29.3889 15.1945 29.3889Z" fill="#89D6BA"/>
<path d="M15.1938 28.2773C19.4894 28.2773 22.9716 24.795 22.9716 20.4995C22.9716 16.2039 19.4894 12.7217 15.1938 12.7217C10.8983 12.7217 7.41602 16.2039 7.41602 20.4995C7.41602 24.795 10.8983 28.2773 15.1938 28.2773Z" fill="#89D6BA"/>
<path d="M15.1938 27.7226C19.4894 27.7226 22.9716 24.2404 22.9716 19.9448C22.9716 15.6492 19.4894 12.167 15.1938 12.167C10.8983 12.167 7.41602 15.6492 7.41602 19.9448C7.41602 24.2404 10.8983 27.7226 15.1938 27.7226Z" fill="#0D744E"/>
<path d="M15.0141 14.1724C15.0632 14.1719 15.1123 14.1714 15.1629 14.1709C16.0513 14.1694 16.8818 14.4957 17.5414 15.0839C17.5697 15.1086 17.5981 15.1333 17.6274 15.1588C18.1853 15.6745 18.593 16.4383 18.9543 17.0967C18.684 17.2877 18.4094 17.4674 18.1258 17.6384C18.0492 17.6849 17.9726 17.7315 17.8961 17.778C17.8578 17.8013 17.8195 17.8246 17.78 17.8486C17.6027 17.957 17.4265 18.0672 17.2505 18.1776C17.1258 18.2555 17.0011 18.3334 16.8764 18.4112C16.8483 18.4288 16.8202 18.4463 16.7912 18.4645C16.715 18.5119 16.6386 18.5592 16.5622 18.6063C16.5201 18.6324 16.478 18.6584 16.4347 18.6853C16.3362 18.7398 16.3362 18.7398 16.2531 18.7398C16.2025 18.6754 16.2025 18.6754 16.1461 18.585C16.1253 18.552 16.1046 18.5191 16.0832 18.4852C16.0613 18.4498 16.0393 18.4143 16.0167 18.3778C15.9943 18.3422 15.9718 18.3066 15.9487 18.2699C15.853 18.118 15.7581 17.9656 15.6641 17.8127C15.6399 17.7738 15.6157 17.7349 15.5907 17.6949C15.5606 17.6454 15.5606 17.6454 15.5299 17.5949C15.4258 17.4578 15.3231 17.3592 15.1518 17.3185C14.957 17.3166 14.8682 17.3215 14.7102 17.4433C14.6014 17.6057 14.604 17.7711 14.6323 17.9593C14.6831 18.0846 14.7536 18.1917 14.8297 18.3034C14.8503 18.335 14.8708 18.3666 14.892 18.3992C14.9354 18.4659 14.9791 18.5323 15.0232 18.5986C15.1087 18.7278 15.1917 18.8586 15.2746 18.9894C15.3368 19.0874 15.3993 19.1851 15.462 19.2827C15.6082 19.5104 15.7538 19.7384 15.8994 19.9664C16.0056 20.1328 16.112 20.299 16.2188 20.465C16.3235 20.6278 16.4277 20.7909 16.5312 20.9545C16.5654 21.0084 16.5997 21.0624 16.6342 21.1162C16.7971 21.3716 16.9285 21.5992 16.9595 21.9029C16.9629 21.9313 16.9663 21.9597 16.9698 21.989C16.9946 22.3981 16.8354 22.8046 16.5872 23.1262C16.2999 23.4352 15.9186 23.6354 15.4967 23.6848C15.0232 23.702 14.6573 23.5579 14.283 23.2761C14.0985 23.1052 13.962 22.9029 13.8427 22.6834C13.8427 22.6562 13.8427 22.6291 13.8427 22.6012C13.5628 22.7612 13.2846 22.9228 13.0116 23.0941C13.3825 23.7803 13.8599 24.2563 14.6156 24.5049C15.2903 24.6871 16.0189 24.596 16.632 24.274C17.2304 23.9206 17.6431 23.3883 17.8271 22.7219C18.0202 21.7695 17.7205 21.0341 17.2011 20.2418C17.175 20.2015 17.1489 20.1613 17.122 20.1199C17.0272 19.9741 16.9321 19.8288 16.8349 19.6846C16.8403 19.6019 16.8403 19.6019 16.8764 19.5203C16.9478 19.4608 16.9478 19.4608 17.0397 19.4069C17.0728 19.3872 17.1058 19.3675 17.1399 19.3473C17.1747 19.3273 17.2094 19.3073 17.2453 19.2867C17.2797 19.2662 17.3142 19.2458 17.3496 19.2247C17.6032 19.0755 17.6032 19.0755 17.7491 19.0274C19.2668 21.3841 19.2668 21.3841 18.9514 22.8838C18.7894 23.5304 18.4937 24.0794 18.0401 24.573C18.0172 24.5989 17.9943 24.6248 17.9707 24.6516C17.4266 25.2332 16.5654 25.6505 15.768 25.6872C14.6174 25.7172 13.6774 25.5079 12.8158 24.7063C12.7844 24.6759 12.753 24.6454 12.7207 24.614C12.68 24.5754 12.68 24.5754 12.6385 24.5359C12.3598 24.2497 12.1617 23.9025 11.9528 23.5656C11.8715 23.4348 11.789 23.3048 11.7065 23.1747C11.6288 23.0521 11.5514 22.9294 11.4739 22.8066C11.6618 22.5941 11.8921 22.4664 12.1363 22.3239C12.223 22.2725 12.3098 22.2211 12.3965 22.1695C12.4382 22.1448 12.48 22.1201 12.523 22.0946C12.7319 21.9697 12.9362 21.8379 13.141 21.7066C13.307 21.6003 13.4734 21.4946 13.6401 21.3894C13.6912 21.3568 13.6912 21.3568 13.7432 21.3235C13.7753 21.3033 13.8074 21.2831 13.8404 21.2623C13.869 21.2442 13.8975 21.2261 13.9268 21.2075C14.0096 21.1631 14.0831 21.1406 14.1752 21.1224C14.1888 21.1436 14.2023 21.1649 14.2163 21.1868C14.2354 21.2167 14.2544 21.2465 14.274 21.2772C14.2951 21.3102 14.3161 21.3431 14.3377 21.377C14.3836 21.4488 14.4295 21.5206 14.4755 21.5923C14.6721 21.8992 14.6721 21.8992 14.7645 22.0495C14.8006 22.1078 14.8006 22.1078 14.8375 22.1673C14.8576 22.2003 14.8777 22.2333 14.8984 22.2673C15.0072 22.4106 15.1218 22.503 15.2946 22.5575C15.4869 22.5614 15.606 22.4928 15.7492 22.3701C15.8228 22.2164 15.8184 22.07 15.7959 21.9029C15.7472 21.78 15.6782 21.6757 15.6037 21.5665C15.5834 21.5352 15.5631 21.5039 15.5421 21.4717C15.4981 21.4041 15.4537 21.3366 15.409 21.2694C15.3123 21.1235 15.2182 20.9761 15.1239 20.8287C15.0499 20.7133 14.9756 20.5981 14.9011 20.4829C14.7502 20.2493 14.5996 20.0155 14.4506 19.7807C14.3334 19.5961 14.2147 19.4128 14.0945 19.2302C14.0383 19.1438 13.982 19.0573 13.9258 18.9709C13.8862 18.9116 13.8862 18.9116 13.8458 18.8511C13.5734 18.4293 13.4018 17.9838 13.4869 17.4824C13.5916 17.0243 13.826 16.6854 14.2213 16.4255C14.6554 16.179 15.0421 16.128 15.5258 16.2546C15.9783 16.4065 16.316 16.68 16.544 17.0967C16.5577 17.1509 16.5714 17.2051 16.5855 17.261C16.997 17.017 16.997 17.017 17.4167 16.7681C17.0559 16.1261 16.6531 15.7013 15.9622 15.4125C15.9288 15.3984 15.8954 15.3844 15.861 15.37C15.266 15.1676 14.5287 15.2315 13.9674 15.4946C13.8051 15.5795 13.6572 15.6735 13.5103 15.7822C13.4779 15.8057 13.4455 15.8292 13.4122 15.8534C12.9475 16.2241 12.6309 16.8011 12.5544 17.3842C12.4981 18.2294 12.7201 18.8449 13.1804 19.5511C13.2018 19.5844 13.2233 19.6177 13.2454 19.6521C13.2664 19.6846 13.2875 19.7172 13.3091 19.7507C13.3292 19.7818 13.3492 19.8129 13.3699 19.8449C13.4056 19.8987 13.4425 19.9519 13.481 20.0039C13.5949 20.158 13.5949 20.158 13.5868 20.2594C13.5411 20.3671 13.4903 20.3965 13.39 20.4568C13.3571 20.4766 13.3242 20.4965 13.2904 20.5169C13.2558 20.5371 13.2212 20.5573 13.1856 20.5781C13.1515 20.5989 13.1174 20.6197 13.0823 20.6411C12.8257 20.7937 12.8257 20.7937 12.6375 20.7937C12.5782 20.7268 12.5782 20.7268 12.5239 20.6328C12.5036 20.5985 12.4834 20.5641 12.4625 20.5287C12.4414 20.4916 12.4203 20.4546 12.3986 20.4163C12.3542 20.3405 12.3098 20.2646 12.2653 20.1888C12.233 20.133 12.233 20.133 12.2 20.0761C12.1214 19.9425 12.0383 19.8125 11.9544 19.6821C11.4299 18.8409 11.2717 17.8374 11.4947 16.8682C11.6717 16.2869 11.9449 15.7875 12.3466 15.3303C12.3869 15.2843 12.3869 15.2843 12.428 15.2374C13.1012 14.5244 14.045 14.1729 15.0141 14.1724Z" fill="white"/>
<path d="M26.1945 30.5003C31.4105 30.5003 35.6389 26.2718 35.6389 21.0558C35.6389 15.8398 31.4105 11.6113 26.1945 11.6113C20.9784 11.6113 16.75 15.8398 16.75 21.0558C16.75 26.2718 20.9784 30.5003 26.1945 30.5003Z" fill="#09573A"/>
<path d="M26.1945 29.3889C31.4105 29.3889 35.6389 25.1605 35.6389 19.9445C35.6389 14.7284 31.4105 10.5 26.1945 10.5C20.9784 10.5 16.75 14.7284 16.75 19.9445C16.75 25.1605 20.9784 29.3889 26.1945 29.3889Z" fill="#89D6BA"/>
<path d="M26.1938 28.2773C30.4894 28.2773 33.9716 24.795 33.9716 20.4995C33.9716 16.2039 30.4894 12.7217 26.1938 12.7217C21.8983 12.7217 18.416 16.2039 18.416 20.4995C18.416 24.795 21.8983 28.2773 26.1938 28.2773Z" fill="#89D6BA"/>
<path d="M26.1938 27.7226C30.4894 27.7226 33.9716 24.2404 33.9716 19.9448C33.9716 15.6492 30.4894 12.167 26.1938 12.167C21.8983 12.167 18.416 15.6492 18.416 19.9448C18.416 24.2404 21.8983 27.7226 26.1938 27.7226Z" fill="#0D744E"/>
<path d="M26.0141 14.1724C26.0632 14.1719 26.1123 14.1714 26.1629 14.1709C27.0513 14.1694 27.8818 14.4957 28.5414 15.0839C28.5697 15.1086 28.5981 15.1333 28.6274 15.1588C29.1853 15.6745 29.593 16.4383 29.9543 17.0967C29.684 17.2877 29.4094 17.4674 29.1258 17.6384C29.0492 17.6849 28.9726 17.7315 28.8961 17.778C28.8578 17.8013 28.8195 17.8246 28.78 17.8486C28.6027 17.957 28.4265 18.0672 28.2505 18.1776C28.1258 18.2555 28.0011 18.3334 27.8764 18.4112C27.8483 18.4288 27.8202 18.4463 27.7912 18.4645C27.715 18.5119 27.6386 18.5592 27.5622 18.6063C27.5201 18.6324 27.478 18.6584 27.4347 18.6853C27.3362 18.7398 27.3362 18.7398 27.2531 18.7398C27.2025 18.6754 27.2025 18.6754 27.1461 18.585C27.1253 18.552 27.1046 18.5191 27.0832 18.4852C27.0613 18.4498 27.0393 18.4143 27.0167 18.3778C26.9943 18.3422 26.9718 18.3066 26.9487 18.2699C26.853 18.118 26.7581 17.9656 26.6641 17.8127C26.6399 17.7738 26.6157 17.7349 26.5907 17.6949C26.5606 17.6454 26.5606 17.6454 26.5299 17.5949C26.4258 17.4578 26.3231 17.3592 26.1518 17.3185C25.957 17.3166 25.8682 17.3215 25.7102 17.4433C25.6014 17.6057 25.604 17.7711 25.6323 17.9593C25.6831 18.0846 25.7536 18.1917 25.8297 18.3034C25.8503 18.335 25.8708 18.3666 25.892 18.3992C25.9354 18.4659 25.9791 18.5323 26.0232 18.5986C26.1087 18.7278 26.1917 18.8586 26.2746 18.9894C26.3368 19.0874 26.3993 19.1851 26.462 19.2827C26.6082 19.5104 26.7538 19.7384 26.8994 19.9664C27.0056 20.1328 27.112 20.299 27.2188 20.465C27.3235 20.6278 27.4277 20.7909 27.5312 20.9545C27.5654 21.0084 27.5997 21.0624 27.6342 21.1162C27.7971 21.3716 27.9285 21.5992 27.9595 21.9029C27.9629 21.9313 27.9663 21.9597 27.9698 21.989C27.9946 22.3981 27.8354 22.8046 27.5872 23.1262C27.2999 23.4352 26.9186 23.6354 26.4967 23.6848C26.0232 23.702 25.6573 23.5579 25.283 23.2761C25.0985 23.1052 24.962 22.9029 24.8427 22.6834C24.8427 22.6562 24.8427 22.6291 24.8427 22.6012C24.5628 22.7612 24.2846 22.9228 24.0116 23.0941C24.3825 23.7803 24.8599 24.2563 25.6156 24.5049C26.2903 24.6871 27.0189 24.596 27.632 24.274C28.2304 23.9206 28.6431 23.3883 28.8271 22.7219C29.0202 21.7695 28.7205 21.0341 28.2011 20.2418C28.175 20.2015 28.1489 20.1613 28.122 20.1199C28.0272 19.9741 27.9321 19.8288 27.8349 19.6846C27.8403 19.6019 27.8403 19.6019 27.8764 19.5203C27.9478 19.4608 27.9478 19.4608 28.0397 19.4069C28.0728 19.3872 28.1058 19.3675 28.1399 19.3473C28.1747 19.3273 28.2094 19.3073 28.2453 19.2867C28.2797 19.2662 28.3142 19.2458 28.3496 19.2247C28.6032 19.0755 28.6032 19.0755 28.7491 19.0274C30.2668 21.3841 30.2668 21.3841 29.9514 22.8838C29.7894 23.5304 29.4937 24.0794 29.0401 24.573C29.0172 24.5989 28.9943 24.6248 28.9707 24.6516C28.4266 25.2332 27.5654 25.6505 26.768 25.6872C25.6174 25.7172 24.6774 25.5079 23.8158 24.7063C23.7844 24.6759 23.753 24.6454 23.7207 24.614C23.68 24.5754 23.68 24.5754 23.6385 24.5359C23.3598 24.2497 23.1617 23.9025 22.9528 23.5656C22.8715 23.4348 22.789 23.3048 22.7065 23.1747C22.6288 23.0521 22.5514 22.9294 22.4739 22.8066C22.6618 22.5941 22.8921 22.4664 23.1363 22.3239C23.223 22.2725 23.3098 22.2211 23.3965 22.1695C23.4382 22.1448 23.48 22.1201 23.523 22.0946C23.7319 21.9697 23.9362 21.8379 24.141 21.7066C24.307 21.6003 24.4734 21.4946 24.6401 21.3894C24.6912 21.3568 24.6912 21.3568 24.7432 21.3235C24.7753 21.3033 24.8074 21.2831 24.8404 21.2623C24.869 21.2442 24.8975 21.2261 24.9268 21.2075C25.0096 21.1631 25.0831 21.1406 25.1752 21.1224C25.1888 21.1436 25.2023 21.1649 25.2163 21.1868C25.2354 21.2167 25.2544 21.2465 25.274 21.2772C25.2951 21.3102 25.3161 21.3431 25.3377 21.377C25.3836 21.4488 25.4295 21.5206 25.4755 21.5923C25.6721 21.8992 25.6721 21.8992 25.7645 22.0495C25.8006 22.1078 25.8006 22.1078 25.8375 22.1673C25.8576 22.2003 25.8777 22.2333 25.8984 22.2673C26.0072 22.4106 26.1218 22.503 26.2946 22.5575C26.4869 22.5614 26.606 22.4928 26.7492 22.3701C26.8228 22.2164 26.8184 22.07 26.7959 21.9029C26.7472 21.78 26.6782 21.6757 26.6037 21.5665C26.5834 21.5352 26.5631 21.5039 26.5421 21.4717C26.4981 21.4041 26.4537 21.3366 26.409 21.2694C26.3123 21.1235 26.2182 20.9761 26.1239 20.8287C26.0499 20.7133 25.9756 20.5981 25.9011 20.4829C25.7502 20.2493 25.5996 20.0155 25.4506 19.7807C25.3334 19.5961 25.2147 19.4128 25.0945 19.2302C25.0383 19.1438 24.982 19.0573 24.9258 18.9709C24.8862 18.9116 24.8862 18.9116 24.8458 18.8511C24.5734 18.4293 24.4018 17.9838 24.4869 17.4824C24.5916 17.0243 24.826 16.6854 25.2213 16.4255C25.6554 16.179 26.0421 16.128 26.5258 16.2546C26.9783 16.4065 27.316 16.68 27.544 17.0967C27.5577 17.1509 27.5714 17.2051 27.5855 17.261C27.997 17.017 27.997 17.017 28.4167 16.7681C28.0559 16.1261 27.6531 15.7013 26.9622 15.4125C26.9288 15.3984 26.8954 15.3844 26.861 15.37C26.266 15.1676 25.5287 15.2315 24.9674 15.4946C24.8051 15.5795 24.6572 15.6735 24.5103 15.7822C24.4779 15.8057 24.4455 15.8292 24.4122 15.8534C23.9475 16.2241 23.6309 16.8011 23.5544 17.3842C23.4981 18.2294 23.7201 18.8449 24.1804 19.5511C24.2018 19.5844 24.2233 19.6177 24.2454 19.6521C24.2664 19.6846 24.2875 19.7172 24.3091 19.7507C24.3292 19.7818 24.3492 19.8129 24.3699 19.8449C24.4056 19.8987 24.4425 19.9519 24.481 20.0039C24.5949 20.158 24.5949 20.158 24.5868 20.2594C24.5411 20.3671 24.4903 20.3965 24.39 20.4568C24.3571 20.4766 24.3242 20.4965 24.2904 20.5169C24.2558 20.5371 24.2212 20.5573 24.1856 20.5781C24.1515 20.5989 24.1174 20.6197 24.0823 20.6411C23.8257 20.7937 23.8257 20.7937 23.6375 20.7937C23.5782 20.7268 23.5782 20.7268 23.5239 20.6328C23.5036 20.5985 23.4834 20.5641 23.4625 20.5287C23.4414 20.4916 23.4203 20.4546 23.3986 20.4163C23.3542 20.3405 23.3098 20.2646 23.2653 20.1888C23.233 20.133 23.233 20.133 23.2 20.0761C23.1214 19.9425 23.0383 19.8125 22.9544 19.6821C22.4299 18.8409 22.2717 17.8374 22.4947 16.8682C22.6717 16.2869 22.9449 15.7875 23.3466 15.3303C23.3869 15.2843 23.3869 15.2843 23.428 15.2374C24.1012 14.5244 25.045 14.1729 26.0141 14.1724Z" fill="white"/>
</g>
<defs>
<clipPath id="clip0_354_5035">
<rect width="39.5" height="39.5" fill="white" transform="translate(0.75 0.5)"/>
</clipPath>
</defs>
</svg>
